<?xml version="1.0" standalone="no"?>
<!DOCTYPE svg PUBLIC "-//W3C//DTD SVG 1.1//EN" "http://www.w3.org/Graphics/SVG/1.1/DTD/svg11.dtd" >
<svg xmlns="http://www.w3.org/2000/svg">
<metadata></metadata>
<defs>
<font id="scotiabank_modernbold" horiz-adv-x="1175" >
<font-face units-per-em="2048" ascent="1575" descent="-473" />
<missing-glyph horiz-adv-x="552" />
<glyph unicode="&#xfb01;" horiz-adv-x="1185" d="M10 928q0 43 28 77.5t85 34.5h76v45q0 68 6 112t22 83q35 84 112 138.5t187 54.5q92 0 148.5 -29.5t56.5 -95.5q0 -41 -28.5 -79t-75.5 -38q-14 0 -26.5 2t-22.5 4t-20.5 4t-27.5 2q-41 0 -56 -33.5t-15 -113.5v-56h147q55 0 84 -36.5t29 -79.5t-27.5 -78t-85.5 -35h-147 v-705q0 -47 -39 -78.5t-92 -31.5t-91 31.5t-38 78.5v705h-76q-55 0 -84 37t-29 80zM817 1325q0 59 41 100t100 41t100.5 -41t41.5 -100t-41 -100t-101 -41q-59 0 -100 41t-41 100zM829 106v834q0 47 38 79t91 32t91 -32t38 -79v-834q0 -49 -37.5 -79.5t-91.5 -30.5 q-53 0 -91 30.5t-38 79.5z" />
<glyph unicode="&#xfb02;" horiz-adv-x="1185" d="M10 928q0 43 28 77.5t85 34.5h76v45q0 68 6 112t22 83q35 84 112 138.5t187 54.5q92 0 146.5 -29.5t54.5 -95.5q0 -41 -26.5 -79t-73.5 -38q-14 0 -26.5 2t-22.5 4t-20.5 4t-27.5 2q-41 0 -56 -33.5t-15 -113.5v-56h147q55 0 84 -36.5t29 -79.5t-27.5 -78t-85.5 -35h-147 v-705q0 -47 -39 -78.5t-92 -31.5t-91 31.5t-38 78.5v705h-76q-55 0 -84 37t-29 80zM829 106v1250q0 47 38 78.5t91 31.5t91 -31.5t38 -78.5v-1250q0 -47 -37.5 -78.5t-91.5 -31.5q-53 0 -91 31.5t-38 78.5z" />
<glyph horiz-adv-x="0" />
<glyph horiz-adv-x="0" />
<glyph unicode="&#xd;" horiz-adv-x="606" />
<glyph unicode=" "  horiz-adv-x="552" />
<glyph unicode="&#x09;" horiz-adv-x="552" />
<glyph unicode="&#xa0;" horiz-adv-x="552" />
<glyph unicode="!" horiz-adv-x="499" d="M102 137q0 61 43 104.5t105 43.5q61 0 104 -43t43 -105q0 -61 -43 -104t-104 -43t-104.5 43t-43.5 104zM113 1313q0 49 42 80.5t95 31.5t95 -31.5t42 -80.5q0 -80 -1 -155t-3 -154.5t-3 -167.5t-1 -195v-166q0 -49 -36 -84t-93 -35t-93 35t-36 84v166q0 88 -1 170t-3 164 t-3 165t-1 173z" />
<glyph unicode="&#x22;" horiz-adv-x="716" d="M63 1083v273q0 47 36 78.5t89 31.5t89 -31.5t36 -78.5v-273q0 -49 -35.5 -79.5t-89.5 -30.5q-53 0 -89 30.5t-36 79.5zM403 1083v273q0 47 36 78.5t89 31.5t89 -31.5t36 -78.5v-273q0 -49 -35.5 -79.5t-89.5 -30.5q-53 0 -89 30.5t-36 79.5z" />
<glyph unicode="#" horiz-adv-x="1323" d="M43 506q0 43 31.5 74.5t79.5 31.5h147l51 207h-166q-49 0 -79.5 32t-30.5 73t30.5 72.5t79.5 31.5h215q12 59 27 115q10 47 23.5 99t23.5 91t43 60.5t74 21.5q51 0 86 -30.5t35 -75.5q0 -10 -2 -27.5t-6 -36.5l-56 -217h176q14 59 29 115q12 47 24.5 99t22.5 91 q12 39 44 60.5t73 21.5q51 0 87 -30.5t36 -75.5q0 -23 -11 -64l-53 -217h92q49 0 80 -31.5t31 -72.5t-30.5 -73t-80.5 -32h-141l-51 -207h162q47 0 78.5 -31.5t31.5 -74.5q0 -41 -31.5 -73t-78.5 -32h-209l-78 -325q-10 -41 -43 -61.5t-74 -20.5q-51 0 -88 30.5t-37 75.5 q0 10 4 27.5t9 36.5l55 237h-174l-80 -325q-10 -39 -42 -60.5t-75 -21.5q-51 0 -86 30.5t-35 75.5q0 10 2 27.5t7 36.5l59 237h-100q-47 0 -79 32t-32 73zM551 612h176l53 207h-178z" />
<glyph unicode="$" d="M92 330q0 43 31 85t88 42q72 0 123 -72q45 -57 81 -91t97 -44v358q-115 37 -191.5 82t-123.5 95.5t-67.5 107.5t-20.5 119q0 68 27.5 131t78.5 114.5t125 87t168 48.5v100q0 35 19.5 54.5t54.5 19.5t54 -19.5t19 -54.5v-100q86 -8 148.5 -32t109.5 -56q66 -45 95.5 -95.5 t29.5 -87.5q0 -57 -40 -91t-83 -34q-23 0 -39 3.5t-31.5 12.5t-30.5 24.5t-36 41.5q-23 29 -54.5 51.5t-72.5 28.5v-336q119 -43 198 -88t125 -95t64.5 -106t18.5 -122q0 -84 -34 -151.5t-90 -118t-129 -82t-149 -42.5v-88q0 -35 -19.5 -54t-53.5 -19q-35 0 -54.5 19.5 t-19.5 53.5v88q-129 12 -225.5 67.5t-161.5 145.5q-18 33 -23.5 54.5t-5.5 44.5zM365 1016q0 -53 43 -86t104 -58v287q-72 -14 -109.5 -52t-37.5 -91zM651 248q63 10 105.5 52t42.5 108q0 53 -42 93t-106 64v-317z" />
<glyph unicode="%" horiz-adv-x="1589" d="M68 1075q0 68 20.5 130.5t60 111.5t98 77.5t134.5 28.5q74 0 131 -28.5t97 -77.5t61.5 -111.5t21.5 -130.5t-21.5 -130t-61.5 -111.5t-97 -78t-131 -28.5q-76 0 -134.5 28.5t-98 78t-60 111.5t-20.5 130zM287 1075q0 -63 23.5 -114.5t70.5 -51.5q45 0 68.5 51.5 t23.5 114.5t-23.5 114.5t-68.5 51.5q-47 0 -70.5 -51.5t-23.5 -114.5zM301 90q0 25 11.5 49.5t27.5 46.5l743 1184q23 33 46.5 43t52.5 10q41 0 76.5 -27.5t35.5 -74.5q0 -18 -12 -45t-29 -49l-741 -1188q-20 -31 -47 -40t-53 -9q-43 0 -77 26.5t-34 73.5zM897 336 q0 68 20.5 131t60.5 111.5t98.5 78t131.5 29.5q74 0 132.5 -29.5t98.5 -78t61.5 -112t21.5 -130.5q0 -68 -21.5 -130.5t-61.5 -110.5t-98.5 -76.5t-132.5 -28.5t-132 28.5t-98 76.5t-60.5 110.5t-20.5 130.5zM1116 336q0 -63 22.5 -113.5t69.5 -50.5t71 50t24 114 q0 63 -24 115.5t-71 52.5t-69.5 -52.5t-22.5 -115.5z" />
<glyph unicode="&#x26;" horiz-adv-x="1411" d="M92 387q0 119 59.5 210t194.5 161q-55 59 -90 137t-35 164q0 74 29 139.5t81 116.5t126.5 80.5t169.5 29.5q92 0 165.5 -27.5t127 -75.5t82 -112.5t28.5 -136.5q0 -66 -23.5 -120t-63.5 -98t-92 -79t-110 -61q49 -51 104.5 -104.5t112.5 -106.5q25 39 52.5 96.5 t52.5 110.5q18 39 50 55t67 16q51 0 93 -31.5t42 -84.5q0 -23 -17 -62q-12 -29 -51 -104.5t-106 -167.5l145 -125q49 -43 49 -86q0 -23 -10 -45.5t-28.5 -40t-42 -28.5t-50.5 -11q-51 0 -88 33q-39 33 -79 63.5t-68 54.5q-78 -66 -178.5 -111.5t-235.5 -45.5 q-102 0 -187 30.5t-146.5 84t-95.5 126t-34 156.5zM360 412q0 -86 58.5 -139.5t156.5 -53.5q59 0 114.5 23.5t105.5 64.5l-299 295q-72 -33 -104 -82t-32 -108zM485 1057q2 -37 23.5 -78t75.5 -94l14 -15l29 13q53 23 96 67.5t43 110.5q0 70 -43 103.5t-96 33.5t-97.5 -34.5 t-44.5 -106.5z" />
<glyph unicode="'" horiz-adv-x="368" d="M59 1083v273q0 47 36 78.5t89 31.5t89 -31.5t36 -78.5v-273q0 -49 -35.5 -79.5t-89.5 -30.5q-53 0 -89 30.5t-36 79.5z" />
<glyph unicode="(" horiz-adv-x="757" d="M92 543q0 236 90 460t271 404q39 37 68.5 51.5t56.5 14.5q53 0 85.5 -37t32.5 -74q0 -33 -15 -59.5t-58 -71.5q-129 -135 -197 -314.5t-68 -373.5q0 -195 68 -374t197 -314q41 -45 57 -72t16 -59q0 -37 -32.5 -74t-85.5 -37q-27 0 -56.5 14.5t-68.5 50.5 q-180 180 -270.5 404.5t-90.5 460.5z" />
<glyph unicode=")" horiz-adv-x="757" d="M61 -276q0 33 16.5 59.5t57.5 71.5q129 135 196.5 314t67.5 374t-67.5 374t-196.5 314q-41 43 -57.5 70.5t-16.5 60.5q0 37 33 74t86 37q27 0 56.5 -14.5t68.5 -51.5q180 -180 270.5 -404t90.5 -460t-90.5 -460t-270.5 -405q-39 -37 -68.5 -51t-56.5 -14q-53 0 -86 37 t-33 74z" />
<glyph unicode="*" horiz-adv-x="1044" d="M147 1169q0 37 27 67t72 30q23 0 49 -11l127 -49q-2 27 -2 56q-2 25 -2 54.5v57.5q0 47 32.5 71.5t71.5 24.5t72 -24.5t33 -71.5q0 -29 -1 -58.5t-1 -53.5q-2 -29 -2 -56l127 49q27 10 47 11q45 0 72.5 -30t27.5 -67q0 -27 -17.5 -51t-56.5 -39l-153 -53l98 -129 q27 -33 27 -66q0 -41 -34 -68.5t-75 -27.5q-51 0 -80 43l-84 125l-84 -125q-29 -43 -80 -43q-41 0 -73.5 28t-32.5 68q0 35 24 66l99 129l-154 53q-39 14 -56.5 38t-17.5 52z" />
<glyph unicode="+" d="M123 522q0 43 28.5 78t86.5 35h229v250q0 53 38 80.5t85 27.5q45 0 82 -26.5t37 -81.5v-250h229q55 0 85 -35t30 -78t-29 -79.5t-86 -36.5h-229v-250q0 -53 -38 -81t-85 -28q-45 0 -82 26.5t-37 82.5v250h-229q-55 0 -85 36.5t-30 79.5z" />
<glyph unicode="," horiz-adv-x="475" d="M90 139q0 61 40 103.5t101 42.5q51 0 84 -20.5t52.5 -52.5t26.5 -67.5t7 -66.5q0 -41 -6 -84t-16 -82t-23.5 -73t-27.5 -58q-23 -35 -48.5 -49.5t-50.5 -14.5q-43 0 -73.5 26t-30.5 62q0 20 5 37t13 37q12 33 18.5 50.5t10.5 35.5q8 31 8 39t-4 10t-14 6q-35 14 -53.5 46 t-18.5 73z" />
<glyph unicode="-" horiz-adv-x="692" d="M74 555q0 43 29.5 79t91.5 36h303q59 0 89.5 -36t30.5 -79t-30.5 -79t-89.5 -36h-303q-61 0 -91 36t-30 79z" />
<glyph unicode="." horiz-adv-x="475" d="M90 137q0 61 43 104.5t105 43.5q61 0 104 -43t43 -105q0 -61 -43 -104t-104 -43t-104.5 43t-43.5 104z" />
<glyph unicode="/" horiz-adv-x="991" d="M68 35q0 14 3 30.5t13 38.5l596 1287q18 41 52 59t71 18q47 0 84 -29.5t37 -86.5q0 -14 -3 -30.5t-14 -39.5l-596 -1286q-18 -41 -52 -59.5t-71 -18.5q-47 0 -83.5 29.5t-36.5 87.5z" />
<glyph unicode="0" d="M76 705q0 147 34.5 278t101.5 229.5t161 155.5t215 57q119 0 214 -57t161.5 -155.5t101.5 -229.5t35 -278t-35 -278.5t-101.5 -228t-161.5 -152.5t-214 -56q-121 0 -215 56t-161 152.5t-101.5 228t-34.5 278.5zM348 705q0 -96 14.5 -182.5t44 -153t74.5 -105.5t107 -39 q61 0 106 39t75 105.5t44 152.5t14 183q0 94 -14 182t-44 155.5t-75 107.5t-106 40t-106.5 -40t-75 -107.5t-44 -155.5t-14.5 -182z" />
<glyph unicode="1" d="M139 1096q0 23 13.5 53.5t52.5 52.5l321 193q49 31 105 30q63 0 100 -37.5t37 -93.5v-1050h219q57 0 88 -37t31 -82q0 -43 -29.5 -79t-89.5 -36h-717q-57 0 -87.5 37t-30.5 82q0 43 29.5 79t88.5 36h238v862l-156 -96q-57 -35 -94 -35q-59 0 -89 38t-30 83z" />
<glyph unicode="2" d="M94 150q0 29 13.5 55t35.5 45l320 270q78 66 137 121t100 109.5t61.5 108.5t20.5 120q0 92 -58 152.5t-157 60.5q-98 0 -153.5 -53.5t-55.5 -126.5q0 -12 1 -23.5t3 -23.5q2 -10 3.5 -22.5t1.5 -22.5q0 -47 -36 -76t-85 -29q-41 0 -70 17.5t-46 45t-25.5 63.5t-8.5 73 q0 80 35 154.5t96.5 132t148.5 91t191 33.5q113 0 202 -33.5t151.5 -93t96.5 -138.5t34 -171q0 -80 -32 -158.5t-87 -156.5t-132 -155t-165 -152q-51 -45 -87 -76t-56 -47h485q66 0 97.5 -36t31.5 -81q0 -43 -32 -80t-97 -37h-741q-68 0 -105 40t-37 100z" />
<glyph unicode="3" d="M70 328q0 49 36.5 80.5t79.5 31.5q27 0 54.5 -10t54.5 -45q68 -86 129 -125t147 -39q63 0 108.5 20.5t73 52.5t40 70.5t12.5 77.5q0 90 -64.5 150.5t-187.5 79.5l-39 6q-39 6 -78 32.5t-39 77.5q0 18 8.5 41t28.5 48l234 294h-445q-66 0 -99.5 36t-33.5 81q0 43 34 80 t99 37h635q72 0 114 -39t42 -90q0 -35 -14.5 -58.5t-38.5 -56.5l-244 -303q90 -29 157.5 -75t111.5 -101t65.5 -116.5t21.5 -123.5q0 -88 -36 -170t-101.5 -144t-159.5 -100t-213 -38q-106 0 -196.5 32.5t-157 82t-103 108.5t-36.5 115z" />
<glyph unicode="4" d="M35 449q0 20 7 42.5t30 57.5q57 94 126.5 197.5t143.5 208t146.5 206t138.5 189.5q29 41 66.5 58t76.5 17q59 0 104.5 -38.5t45.5 -98.5v-764h100q61 0 93 -33.5t32 -76.5t-31 -77t-94 -38h-100v-190q0 -49 -38 -81t-94 -32q-55 0 -93 31.5t-38 81.5v190h-464 q-66 0 -112 44t-46 106zM313 524h344v492q-43 -61 -92 -130t-95 -134.5t-87 -125t-70 -102.5z" />
<glyph unicode="5" d="M92 309q0 47 36 88t97 41q41 0 69 -21.5t50 -58.5q37 -61 91 -98t128 -37q57 0 101.5 19.5t73 52.5t44 76t15.5 90q0 43 -14.5 85t-44 74.5t-76 53t-109.5 20.5q-57 0 -108.5 -4t-116.5 -10h-13q-53 0 -97 36t-44 93q0 2 3 24.5t7 58.5t11.5 81t13.5 92q14 111 35 248 q4 39 43 65.5t90 26.5h545q61 0 93 -36t32 -81q0 -43 -31 -80t-94 -37h-449q-10 -66 -20.5 -130t-16.5 -128q25 2 56.5 2h60.5q133 0 230.5 -37.5t160 -101t92 -143.5t29.5 -166t-35 -171t-100.5 -153.5t-158.5 -110.5t-212 -42q-96 0 -180 30.5t-148.5 77.5t-101.5 103.5 t-37 107.5z" />
<glyph unicode="6" d="M94 672q0 131 29 265t95.5 242.5t173 177t261.5 68.5q111 0 193 -35.5t129 -86.5q29 -29 40 -59t11 -50q0 -59 -37 -94t-90 -35q-59 0 -115 55q-39 39 -76.5 55.5t-76.5 16.5q-74 0 -123 -36t-79 -94t-45.5 -130t-23.5 -146q66 59 144 88t158 29q84 0 162.5 -29.5 t140 -85t99.5 -136.5t38 -183q0 -90 -31 -176t-92 -153.5t-152.5 -108.5t-210.5 -41q-113 0 -209 47t-165.5 135t-108.5 215t-39 285zM383 487q0 -23 4 -41t12 -38q29 -86 89.5 -136.5t142.5 -50.5q49 0 87 19.5t63.5 51.5t39 74t13.5 85t-13.5 85t-39 74.5t-65.5 53 t-91 20.5q-53 0 -109.5 -22.5t-97.5 -75.5q-35 -41 -35 -99z" />
<glyph unicode="7" d="M94 1063v209q0 59 35 96t94 37h707q86 0 128 -39t42 -98q0 -23 -6.5 -49.5t-28.5 -69.5q-131 -262 -255 -523t-237 -544q-18 -49 -53 -70.5t-74 -21.5q-63 0 -100 36.5t-37 84.5q0 10 4.5 27t16.5 50q43 102 100 227.5t120.5 256.5t128 261t124.5 241h-455v-111 q0 -55 -41 -85t-88 -30t-86 29t-39 86z" />
<glyph unicode="8" d="M94 391q0 98 62.5 188.5t199.5 151.5q-63 31 -106 68t-69.5 79t-39 85t-12.5 86q0 76 36 144.5t97.5 120.5t145.5 81.5t180 29.5q98 0 182 -29.5t145.5 -81.5t96.5 -120.5t35 -144.5q0 -86 -50.5 -169t-173.5 -145q131 -53 194.5 -150.5t63.5 -193.5q0 -82 -38.5 -154.5 t-105.5 -128t-157 -87t-192 -31.5t-192.5 31.5t-157 87t-105.5 128t-39 154.5zM362 403q0 -80 66 -131t160 -51t159.5 51t65.5 131q0 51 -40 106.5t-150 108.5q-20 10 -33 11q-4 0 -13.5 -2t-23.5 -9q-117 -51 -154 -107t-37 -108zM391 1036q0 -23 6 -48t23.5 -50 t49.5 -49.5t83 -44.5q18 -8 35 -8q4 0 13 1t15 5q100 47 134 99t34 95q0 72 -56 114t-140 42q-82 0 -139.5 -42t-57.5 -114z" />
<glyph unicode="9" d="M74 946q0 88 30.5 174t92 153.5t151.5 109.5t211 42q113 0 209 -47t166 -135t108.5 -215t38.5 -285q0 -131 -28.5 -265t-95 -242.5t-173 -177t-262.5 -68.5q-111 0 -192.5 35.5t-128.5 87.5q-29 29 -40 58.5t-11 49.5q0 59 36.5 94t89.5 35q59 0 115 -55q39 -39 77 -55.5 t77 -16.5q74 0 123 36t78.5 94.5t45 130t23.5 145.5q-66 -59 -143.5 -88t-157.5 -29q-84 0 -163 29.5t-140 85t-99 136.5t-38 183zM342 965q0 -43 13.5 -85t39 -75t64.5 -53.5t92 -20.5t109.5 22.5t97.5 75.5q35 41 35 99q0 23 -4.5 41t-12.5 39q-29 86 -89 136t-142 50 q-49 0 -87 -19.5t-63.5 -51t-39 -73.5t-13.5 -85z" />
<glyph unicode=":" horiz-adv-x="446" d="M76 137q0 61 43 104.5t104 43.5t104.5 -43t43.5 -105q0 -61 -43 -104t-105 -43q-61 0 -104 43t-43 104zM76 784q0 61 43 104.5t104 43.5t104.5 -43t43.5 -105q0 -61 -43 -104t-105 -43q-61 0 -104 43t-43 104z" />
<glyph unicode=";" horiz-adv-x="446" d="M76 139q0 61 40 103.5t101 42.5q51 0 84 -20.5t52.5 -52.5t26.5 -67.5t7 -66.5q0 -41 -6 -84t-16.5 -82t-23.5 -73t-28 -58q-23 -35 -48 -49.5t-50 -14.5q-43 0 -73.5 26t-30.5 62q0 20 5 37t13 37q12 33 18.5 50.5t10.5 35.5q8 31 8 39t-4 10t-15 6q-35 14 -53 46 t-18 73zM76 784q0 61 43 104.5t104 43.5t104.5 -43t43.5 -105q0 -61 -43 -104t-105 -43q-61 0 -104 43t-43 104z" />
<glyph unicode="&#x3c;" d="M150 520q0 70 73 109l598 303q35 16 52.5 21t33.5 5q51 0 85 -32.5t34 -75.5q0 -29 -18.5 -59.5t-65.5 -53.5l-436 -217l436 -217q47 -23 65.5 -53.5t18.5 -59.5q0 -43 -34 -75.5t-85 -32.5q-16 0 -33.5 5t-52.5 22l-598 303q-74 39 -73 108z" />
<glyph unicode="=" d="M133 319q0 43 30 79t89 36h672q59 0 88.5 -34.5t29.5 -77.5t-29.5 -80t-88.5 -37h-672q-59 0 -89 35.5t-30 78.5zM133 719q0 43 30 80t89 37h672q59 0 88.5 -36t29.5 -79t-29.5 -79t-88.5 -36h-672q-59 0 -89 35t-30 78z" />
<glyph unicode="&#x3e;" d="M154 190q0 29 18 60t66 53l436 217l-436 217q-47 23 -65.5 53.5t-18.5 59.5q0 43 33.5 75.5t84.5 32.5q16 0 34 -5t52 -21l598 -303q74 -39 74 -109t-74 -108l-598 -303q-35 -16 -52 -21.5t-34 -5.5q-51 0 -84.5 32.5t-33.5 75.5z" />
<glyph unicode="?" horiz-adv-x="1091" d="M111 1055q0 61 28.5 126.5t84 120t135 89t182.5 34.5q94 0 177 -28.5t144.5 -78.5t96 -119t34.5 -148q0 -51 -10 -93.5t-31.5 -79t-53.5 -72.5t-75 -73q-43 -39 -72.5 -69.5t-48 -60.5t-28.5 -60.5t-17 -69.5l-2 -14q-8 -53 -42.5 -77t-75.5 -24q-49 0 -92.5 34 t-43.5 100q0 109 56.5 193.5t130.5 150.5l20 18q66 59 91.5 100t25.5 90q0 74 -55.5 112t-122.5 38q-35 0 -69 -10t-59.5 -29.5t-42 -50.5t-16.5 -70v-18q0 -55 -33.5 -84t-78.5 -29q-49 0 -93 37t-44 115zM389 137q0 61 43 104.5t105 43.5q61 0 104 -43t43 -105 q0 -61 -43 -104t-104 -43t-104.5 43t-43.5 104z" />
<glyph unicode="@" horiz-adv-x="1912" d="M123 512q0 197 67.5 363.5t187.5 288.5t283.5 190.5t356.5 68.5q186 0 324.5 -60t230.5 -158.5t138 -223.5t46 -254q0 -154 -63.5 -290t-190.5 -222q-53 -35 -120.5 -57.5t-135.5 -22.5q-63 0 -116.5 23.5t-81.5 77.5q-66 -47 -118 -71t-110 -24q-121 0 -200.5 96.5 t-79.5 276.5q0 92 28.5 185.5t88 168t150.5 122.5t216 48q33 0 85 -5t101.5 -21.5t84 -48t34.5 -84.5q0 -4 -1 -26t-5 -38l-53 -379q-2 -10 -3 -21.5t-1 -17.5q0 -45 34 -45q33 0 80 39q59 53 92 141.5t33 188.5q0 88 -25.5 174t-84 154.5t-155.5 110.5t-239 42 q-133 0 -247.5 -50t-199.5 -141t-134 -218t-49 -281q0 -137 42 -249.5t120.5 -193.5t189.5 -125t250 -44q125 0 221 30.5t180 83.5q43 29 66.5 39t46.5 10q55 0 86 -34.5t31 -77.5q0 -29 -18.5 -58.5t-69.5 -64.5q-111 -74 -239 -112t-304 -38q-184 0 -340 58.5t-269.5 167 t-177 263.5t-63.5 345zM788 514q0 -84 33 -123t74 -39q43 0 81 38t48 108l45 323q-14 2 -26.5 3t-18.5 1q-61 0 -105.5 -28.5t-74 -73.5t-43 -100.5t-13.5 -108.5z" />
<glyph unicode="A" horiz-adv-x="1441" d="M74 119q0 14 3 31.5t17 56.5q102 281 224 566.5t257 555.5q23 47 65 71.5t89 24.5q43 0 83 -22.5t65 -73.5q127 -254 241.5 -528.5t231.5 -593.5q14 -39 17 -56.5t3 -31.5q0 -59 -40 -91t-91 -32q-39 0 -76 21.5t-53 72.5l-109 289h-567l-102 -289q-16 -51 -52 -72.5 t-75 -21.5q-51 0 -91 31.5t-40 91.5zM520 614h395q-16 41 -39.5 98.5t-49 121t-53 129t-52.5 122.5q-25 -55 -51.5 -117.5l-53 -125t-51 -120.5t-45.5 -108z" />
<glyph unicode="B" horiz-adv-x="1196" d="M135 129v1157q0 47 40 83t93 36h340q113 0 197 -34t140 -88t84 -121.5t28 -137.5q0 -86 -42 -162t-120 -129q104 -47 155.5 -136t51.5 -179q0 -78 -31 -150.5t-91 -130t-149.5 -92.5t-205.5 -35h-357q-53 0 -93 36t-40 83zM403 246h222q49 0 87 16.5t63.5 42t37.5 58 t12 67.5q0 33 -12 65.5t-37.5 58.5t-63.5 41t-87 15h-222v-364zM403 829h209q43 0 75 15.5t53.5 40t31.5 55.5t10 61q0 61 -43 114.5t-131 53.5h-205v-340z" />
<glyph unicode="C" horiz-adv-x="1370" d="M94 709q0 152 47 282.5t134 227t211 151.5t276 55q74 0 141.5 -16t124.5 -42t104.5 -59.5t79.5 -70.5q68 -74 68 -145q0 -39 -34 -77t-89 -40q-29 0 -56.5 10t-56.5 45q-59 70 -125.5 115t-168.5 45q-98 0 -170 -42t-120 -110.5t-71.5 -154.5t-23.5 -174 q0 -90 25.5 -177.5t74.5 -155t119.5 -109.5t158.5 -42q49 0 89 9.5t75 29t69 50t68 73.5q29 35 57.5 45t57.5 10q45 0 83 -32.5t38 -81.5t-38 -108.5t-106.5 -110t-163.5 -85t-210 -34.5q-164 0 -289 61.5t-209 161.5t-127 229t-43 267z" />
<glyph unicode="D" horiz-adv-x="1384" d="M135 113v1173q0 45 38 82t93 37h303q147 0 278.5 -48t230 -139.5t155.5 -220.5t57 -290q0 -154 -53 -282t-148.5 -220t-225.5 -143.5t-283 -51.5h-314q-53 0 -92 30t-39 73zM401 246h183q96 0 175 33.5t135 95t87 145.5t31 187q0 98 -30 183t-85 147.5t-137 97t-187 34.5 h-172v-923z" />
<glyph unicode="E" horiz-adv-x="1073" d="M135 115v1171q0 47 39 83t90 36h600q61 0 92 -37t31 -82t-30.5 -81t-92.5 -36h-463v-342h410q61 0 92 -36.5t31 -81.5t-31 -81t-92 -36h-410v-346h467q63 0 94 -37t31 -82t-30.5 -81t-94.5 -36h-604q-51 0 -90 30t-39 75z" />
<glyph unicode="F" horiz-adv-x="1040" d="M135 113v1173q0 47 40 83t93 36h578q61 0 93 -37t32 -82t-32 -81t-93 -36h-443v-374h390q61 0 91.5 -37t30.5 -82t-30.5 -81t-91.5 -36h-390v-446q0 -49 -38.5 -83t-94.5 -34q-55 0 -95 33.5t-40 83.5z" />
<glyph unicode="G" horiz-adv-x="1443" d="M94 715q0 152 48 281.5t136.5 225t212 149.5t275.5 54q100 0 195.5 -31.5t169 -80.5t117.5 -105.5t44 -105.5q0 -47 -34.5 -86t-90.5 -41q-29 0 -59.5 13t-71.5 61q-66 74 -141.5 107.5t-149.5 33.5q-68 0 -130 -25.5t-113 -77.5q-70 -70 -103.5 -172t-33.5 -206 t27.5 -193.5t79.5 -154t127 -101.5t167 -37q86 0 149.5 26.5t104.5 72.5q29 33 34 56t5 58v33h-168q-66 0 -96.5 37t-30.5 82t30.5 81t96.5 36h301q53 0 91 -32t38 -83v-164q0 -94 -45 -174t-122 -138.5t-177 -91t-211 -32.5q-145 0 -268 51t-212 146.5t-140.5 228.5 t-51.5 299z" />
<glyph unicode="H" horiz-adv-x="1378" d="M135 113v1185q0 49 39 83t94 34t95 -33.5t40 -83.5v-471h572v471q0 49 40 83t95 34t94 -33.5t39 -83.5v-1185q0 -49 -39 -83t-94 -34t-95 33.5t-40 83.5v479h-572v-479q0 -49 -39.5 -83t-95.5 -34q-55 0 -94 33.5t-39 83.5z" />
<glyph unicode="I" horiz-adv-x="536" d="M135 113v1185q0 49 39 83t94 34t94 -33.5t39 -83.5v-1185q0 -49 -38.5 -83t-94.5 -34q-55 0 -94 33.5t-39 83.5z" />
<glyph unicode="J" horiz-adv-x="917" d="M37 246q0 59 38 92t87 33q31 0 61.5 -15.5t52.5 -44.5l17 -22q16 -23 39.5 -43.5t54.5 -20.5q55 2 91 40t36 130v905q0 49 39 82t94 33t95 -32.5t40 -82.5v-905q0 -96 -30.5 -170.5t-85 -127t-128 -80t-159.5 -27.5q-70 0 -131.5 21.5t-108.5 57t-74.5 82t-27.5 95.5z " />
<glyph unicode="K" horiz-adv-x="1265" d="M135 113v1185q0 49 40 83t95 34t94 -33.5t39 -83.5v-450q129 123 258.5 249t266.5 263q35 35 58.5 45t55.5 10q57 0 91 -40t34 -89q0 -25 -11 -51.5t-46 -58.5q-70 -66 -125 -117t-103 -95t-93.5 -85t-94.5 -84q49 -66 107.5 -141.5t118 -151.5t116 -147.5t103.5 -129.5 q29 -35 39 -60.5t10 -41.5q0 -55 -43 -91t-92 -36q-31 0 -64 16.5t-55 44.5q-96 117 -208 263.5t-228 304.5l-95 -86v-426q0 -49 -38.5 -83t-94.5 -34q-55 0 -95 33.5t-40 83.5z" />
<glyph unicode="L" horiz-adv-x="1026" d="M135 127v1171q0 49 39 83t94 34t94 -33.5t39 -83.5v-1052h453q61 0 92 -37t31 -82t-31 -81t-92 -36h-588q-27 0 -50 10.5t-41.5 28t-29 37.5t-10.5 41z" />
<glyph unicode="M" horiz-adv-x="1624" d="M135 111v1167q0 70 45 103.5t101 33.5q37 0 77.5 -19.5t67.5 -60.5q92 -147 184 -304t199 -343q68 117 121 208t99 168t87 143.5t84 131.5q29 43 66 59.5t77 16.5q55 0 100.5 -32.5t45.5 -104.5v-1165q0 -49 -39 -83t-94 -34t-94 33.5t-39 83.5v811q-61 -111 -107.5 -190 t-80.5 -137t-59.5 -100t-47.5 -79q-18 -29 -50 -49.5t-71 -20.5q-35 0 -71 19.5t-58 58.5q-70 115 -146.5 247t-136.5 242v-804q0 -49 -38 -82t-93 -33q-57 0 -93 32.5t-36 82.5z" />
<glyph unicode="N" horiz-adv-x="1449" d="M135 113v1167q0 70 45 102.5t105 32.5q37 0 68.5 -15.5t60.5 -53.5q92 -117 175 -224.5t160.5 -211t151.5 -207t150 -216.5v811q0 49 38.5 83t92.5 34q55 0 94 -33.5t39 -83.5v-1187q0 -49 -40 -82t-93 -33q-57 0 -87 25.5t-55 60.5l-43 61q-141 203 -293.5 396.5 t-304.5 410.5v-837q0 -49 -38.5 -83t-92.5 -34q-55 0 -94 33.5t-39 83.5z" />
<glyph unicode="O" horiz-adv-x="1540" d="M94 707q0 160 55.5 293t147.5 227t215 146t258 52t258 -52t215 -146t147.5 -227.5t55.5 -292.5q0 -160 -55.5 -292t-147.5 -226.5t-215 -146.5t-258 -52t-258 52t-215 146.5t-147.5 226.5t-55.5 292zM375 707q0 -109 30.5 -198t85 -152.5t126 -97.5t153.5 -34 q80 0 152.5 34t126 97.5t85 152.5t31.5 198t-31.5 198.5t-85 153t-126 98.5t-152.5 35q-82 0 -153.5 -35t-126 -98.5t-85 -153.5t-30.5 -198z" />
<glyph unicode="P" horiz-adv-x="1105" d="M135 113v1173q0 51 41 85t88 34h322q119 0 208 -37t147 -97.5t87 -138t29 -159.5q0 -84 -30 -166t-90 -145.5t-148.5 -102.5t-204.5 -39h-183v-407q0 -49 -38.5 -83t-94.5 -34q-55 0 -94 33.5t-39 83.5zM401 756h183q47 0 84 18.5t61.5 49t37.5 68.5t13 79q0 37 -12 72.5 t-35.5 63.5t-60.5 45t-86 17h-185v-413z" />
<glyph unicode="Q" horiz-adv-x="1540" d="M94 707q0 160 55.5 293t147.5 227t215 146t258 52t258 -52t215 -146t147.5 -227.5t55.5 -292.5q0 -123 -32 -226.5t-89 -189.5l78 -70q45 -43 45 -96q0 -51 -39 -90t-90 -39q-27 0 -54.5 11t-56.5 38l-65 59q-82 -55 -176.5 -84.5t-196.5 -29.5q-135 0 -258 52 t-215 146.5t-147.5 226.5t-55.5 292zM375 707q0 -109 30.5 -198t85 -152.5t126 -97.5t153.5 -34q100 0 186 51l-96 91q-45 43 -45 96q0 51 39 90t90 39q27 0 54.5 -11.5t56.5 -37.5l67 -64q20 49 31.5 105.5t11.5 122.5q0 109 -31.5 198.5t-85 153t-126 98.5t-152.5 35 q-82 0 -153.5 -35t-126 -98.5t-85 -153.5t-30.5 -198z" />
<glyph unicode="R" horiz-adv-x="1196" d="M135 113v1175q0 45 39 81t96 36h316q123 0 213 -36t149.5 -93t89 -132t29.5 -151q0 -61 -17.5 -120.5t-51 -111.5t-87 -94t-123.5 -69q27 -37 54.5 -74t62.5 -82t78 -97t98 -120q29 -35 39 -60.5t10 -41.5q0 -55 -43 -91t-92 -36q-31 0 -64.5 17.5t-56.5 45.5 q-61 78 -153 196t-199 275q-14 20 -26.5 26.5t-32.5 6.5h-60v-450q0 -49 -38.5 -83t-94.5 -34q-55 0 -95 33.5t-40 83.5zM401 768h193q47 0 84 17.5t61.5 47t38 66.5t13.5 76q0 37 -12.5 71.5t-36 62.5t-60.5 44t-86 16h-195v-401z" />
<glyph unicode="S" d="M63 328q0 49 39 81.5t84 32.5q29 0 57.5 -10t57.5 -45q70 -86 135.5 -125t155.5 -39q98 0 165.5 46t67.5 118q0 25 -12 51.5t-44 53t-87 53t-141 55.5l-52 16q-209 66 -300 172.5t-91 241.5q0 92 37 166t101.5 124t153.5 77.5t194 27.5q102 0 188 -25.5t147.5 -65.5 t95.5 -87t34 -88q0 -51 -36 -88t-91 -37q-31 0 -57.5 14.5t-67.5 53.5t-91.5 64.5t-125.5 25.5q-98 0 -158 -43t-60 -107q0 -59 61.5 -104t192.5 -88l50 -16q125 -41 206.5 -90.5t130 -102.5t68 -111.5t19.5 -119.5q0 -98 -41 -176t-111 -132.5t-162 -83t-192 -28.5 q-113 0 -208 32.5t-165 82t-109 108.5t-39 115z" />
<glyph unicode="T" horiz-adv-x="1118" d="M39 1286q0 45 28.5 82t88.5 37h807q57 0 84.5 -37t27.5 -82t-27.5 -82t-84.5 -37h-271v-1054q0 -49 -39 -83t-94 -34t-94 33.5t-39 83.5v1054h-270q-59 0 -88 37t-29 82z" />
<glyph unicode="U" horiz-adv-x="1337" d="M135 530v768q0 41 35 79t98 38q59 0 96 -38t37 -79v-768q0 -80 22.5 -137t60.5 -95t86 -55.5t100 -17.5q51 0 99 17.5t85 55.5t59.5 95.5t22.5 136.5v766q0 49 39 84t94 35t94 -34.5t39 -84.5v-766q0 -131 -45 -232t-118.5 -170t-170 -103.5t-198.5 -34.5t-198.5 34.5 t-171.5 103.5t-120 170t-45 232z" />
<glyph unicode="V" horiz-adv-x="1427" d="M72 1292q0 59 40 91t91 32q39 0 76 -21.5t53 -72.5q92 -242 181 -483.5t202 -483.5q109 238 202 474.5t181 492.5q16 51 52 72.5t75 21.5q51 0 91 -31.5t40 -91.5q0 -14 -3 -31.5t-18 -56.5q-102 -281 -224 -562.5t-257 -551.5q-27 -53 -65.5 -76.5t-79.5 -23.5t-80 23.5 t-66 76.5q-127 252 -240.5 524.5t-230.5 589.5q-14 39 -17 56.5t-3 31.5z" />
<glyph unicode="W" horiz-adv-x="2058" d="M88 1290q0 53 33 89t98 36q47 0 86 -30t51 -85q31 -125 96.5 -352t159.5 -538q51 182 104.5 359t102.5 331l64 200q20 66 63 90.5t84 24.5q43 0 84 -23.5t62 -84.5l67 -209q25 -76 55.5 -172.5t61.5 -193.5t59.5 -186t46.5 -153q47 166 82 297t62.5 238.5t50 200 t45.5 182.5q12 47 51 75.5t80 28.5q49 0 91 -33.5t42 -87.5q0 -41 -12 -80.5t-23 -80.5q-59 -236 -140 -490t-179 -526q-25 -68 -66 -94.5t-86 -26.5q-47 0 -90 26.5t-67 92.5q-78 217 -144.5 442t-132.5 449q-29 -109 -63.5 -232t-71.5 -242.5t-73 -230.5t-68 -195 q-23 -55 -66 -82.5t-90 -27.5t-87 25.5t-62 84.5q-96 281 -184.5 551.5t-153.5 532.5q-23 90 -23 100z" />
<glyph unicode="X" horiz-adv-x="1386" d="M63 106q0 23 8.5 45.5t32.5 55.5q102 133 208 257t216 259q-55 68 -118.5 141.5t-121 140t-103.5 121t-70 84.5q-16 18 -22.5 40t-6.5 44q0 57 40 89t91 32q76 0 123 -59q18 -25 63.5 -81t98.5 -122t104 -129t86 -102l348 432q33 41 61.5 51t53.5 10q55 0 94 -36t39 -83 q0 -20 -7 -39.5t-32 -50.5q-25 -35 -60.5 -78t-84.5 -100t-111.5 -130t-142.5 -167q66 -86 174.5 -213t253.5 -299q29 -35 37 -58.5t8 -41.5q0 -59 -40 -91t-93 -32q-29 0 -58.5 11t-54.5 40q-35 43 -129 159t-262 324q-98 -121 -198.5 -247.5t-186.5 -239.5 q-41 -47 -111 -47q-59 0 -93 36t-34 74z" />
<glyph unicode="Y" horiz-adv-x="1232" d="M37 1290q0 20 8 42t24.5 40.5t41 30.5t57.5 12q29 0 64.5 -14.5t56.5 -46.5l37 -58q66 -100 137.5 -220t157.5 -238q31 43 67.5 100t74.5 118.5t74.5 121t65.5 106.5l41 66q23 39 52.5 52t58.5 13q33 0 59.5 -12t45 -30.5t27.5 -40t9 -42.5q0 -18 -7 -35.5t-24 -46.5 q-82 -127 -159 -243q-33 -49 -69 -103.5t-69.5 -105.5t-64.5 -97.5t-55 -83.5v-462q0 -49 -39 -83t-95 -34q-55 0 -94 33.5t-39 83.5v462q-53 80 -114.5 171.5t-120 179.5t-107.5 162.5t-76 117.5q-16 31 -21 48.5t-5 35.5z" />
<glyph unicode="Z" horiz-adv-x="1249" d="M84 135q0 20 8 41t31 55q154 233 320.5 466t338.5 472h-559q-59 0 -89 36t-30 81t30 82t89 37h791q53 0 91 -36t38 -83q0 -18 -7.5 -45t-45.5 -84q-160 -231 -325 -453.5t-325 -457.5h607q59 0 88.5 -37t29.5 -82t-29.5 -81t-88.5 -36h-832q-59 0 -95 37t-36 88z" />
<glyph unicode="[" horiz-adv-x="770" d="M154 -274v1617q0 47 38.5 83t90.5 36h309q59 0 89 -38t30 -83q0 -43 -29 -77.5t-90 -34.5h-178v-1374h182q59 0 90 -38t31 -83q0 -43 -30 -78t-91 -35h-313q-51 0 -90 30t-39 75z" />
<glyph unicode="\" horiz-adv-x="991" d="M68 1352q0 57 36.5 86.5t83.5 29.5q37 0 71 -18t52 -59l596 -1287q10 -23 13.5 -39t3.5 -30q0 -57 -37 -87t-84 -30q-37 0 -71 18.5t-52 59.5l-596 1286q-10 23 -13 39t-3 31z" />
<glyph unicode="]" horiz-adv-x="770" d="M53 -266q0 45 31 83t90 38h182v1374h-178q-61 0 -90 34.5t-29 77.5q0 45 30 83t89 38h309q51 0 90 -35.5t39 -83.5v-1617q0 -45 -38.5 -75t-90.5 -30h-313q-61 0 -91 35t-30 78z" />
<glyph unicode="^" horiz-adv-x="1196" d="M92 725q0 18 5 36.5t32 59.5q20 33 59 96.5t88.5 140.5t103.5 162t105 164q23 29 51.5 41.5t59.5 12.5t59.5 -12.5t51.5 -41.5q51 -80 105 -164.5t103.5 -161.5t88 -140.5t59.5 -96.5q27 -41 32 -59.5t5 -36.5q0 -41 -31 -79t-94 -38q-29 0 -60.5 12.5t-50.5 45.5 q-49 86 -112.5 192.5t-155.5 239.5q-92 -133 -155.5 -239.5t-112.5 -192.5q-18 -33 -50 -45.5t-61 -12.5q-63 0 -94 38t-31 79z" />
<glyph unicode="_" horiz-adv-x="1155" d="M-113 -264q0 43 28 78.5t87 35.5h1155q57 0 86 -35.5t29 -78.5t-30 -79t-87 -36h-1155q-57 0 -85 36t-28 79z" />
<glyph unicode="`" horiz-adv-x="1146" d="M344 1364q0 41 31 70.5t78 29.5q16 0 33.5 -4t33.5 -14l215 -125q41 -25 58.5 -53.5t17.5 -57.5q0 -41 -30.5 -70.5t-78.5 -29.5q-16 0 -33.5 4t-33.5 14l-215 125q-41 23 -58.5 52.5t-17.5 58.5z" />
<glyph unicode="a" horiz-adv-x="1138" d="M61 520q0 92 29 186.5t85 171t138 125t189 48.5q78 0 143.5 -31t108.5 -80q0 14 7 33.5t22.5 36t40 29t61.5 12.5q53 0 92 -35t39 -82v-610q0 -35 7 -58.5t19 -40.5q12 -16 23.5 -36.5t11.5 -55.5q0 -59 -40 -98t-91 -39q-41 0 -85 19.5t-87 95.5q-43 -49 -118.5 -82 t-153.5 -33q-104 0 -185 45t-138.5 118.5t-87.5 168t-30 192.5zM328 520q0 -139 64.5 -217t156.5 -78q53 0 97 19.5t71 52.5q29 33 34 72t5 116v76q0 39 -1 66.5t-4 49t-11.5 39t-22.5 34.5q-27 33 -71 52t-97 19q-47 0 -88 -22.5t-71 -63.5t-46 -96t-16 -119z" />
<glyph unicode="b" horiz-adv-x="1140" d="M123 123v1239q0 47 38 79t91 32q55 0 93 -32t38 -79v-408q47 41 115.5 69t138.5 28q104 0 185 -45t138.5 -119t87 -168t29.5 -193q0 -92 -28.5 -186t-85 -171t-138.5 -125t-188 -48q-78 0 -143.5 30.5t-108.5 79.5q-4 -16 -11 -35.5t-23.5 -36t-41 -27.5t-61.5 -11 q-53 0 -89 35t-36 92zM383 483q0 -78 5 -115.5t34 -70.5q27 -33 71 -52.5t97 -19.5q96 0 158.5 83t62.5 218q0 68 -17.5 122t-47 92t-70.5 59.5t-86 21.5q-53 0 -97 -19.5t-71 -51.5q-14 -16 -22.5 -34t-11.5 -39.5t-4 -49t-1 -66.5v-78z" />
<glyph unicode="c" horiz-adv-x="1003" d="M61 520q0 109 37 205t103.5 169t159 115t200.5 42q76 0 144.5 -22.5t121 -59.5t84 -85t31.5 -102q0 -57 -39 -91t-80 -34t-64.5 18.5t-47.5 53.5q-27 39 -65 65.5t-93 26.5q-47 0 -88 -22.5t-72 -62.5t-48 -95t-17 -123t17 -122t48 -94t72 -61.5t88 -21.5q45 0 86 19.5 t78 68.5q29 35 52.5 48.5t51.5 13.5q51 0 85 -35t34 -82t-25.5 -90t-85.5 -88q-49 -37 -117.5 -60.5t-150.5 -23.5q-109 0 -200 40t-157.5 110.5t-104.5 168t-38 211.5z" />
<glyph unicode="d" horiz-adv-x="1138" d="M61 522q0 94 29 188.5t84 170t137 123t191 47.5q70 0 138.5 -28t115.5 -69v408q0 47 37.5 79t93.5 32q53 0 91 -32t38 -79v-1239q0 -57 -36 -92t-89 -35q-37 0 -61.5 11t-41 27.5t-24.5 36t-10 35.5q-43 -49 -108.5 -79.5t-143.5 -30.5q-100 0 -182 41t-139.5 112.5 t-88.5 168t-31 204.5zM328 522q0 -139 60.5 -218t160.5 -79q53 0 97 19.5t71 52.5q29 33 34 72t5 116v76q0 39 -1 66.5t-4 49t-11.5 39t-22.5 34.5q-27 33 -71 52t-97 19q-100 0 -160.5 -79.5t-60.5 -219.5z" />
<glyph unicode="e" horiz-adv-x="1075" d="M61 512q0 117 38 215t104.5 170t154.5 113t191 41q102 0 187 -37t146.5 -99.5t96.5 -144.5t35 -170q0 -76 -46 -117t-110 -41h-536q16 -104 79.5 -166.5t173.5 -62.5q45 0 88.5 16.5t84.5 59.5q51 55 112 55q45 0 78 -29.5t33 -76.5q0 -45 -34 -89.5t-91.5 -80t-130 -57 t-148.5 -21.5q-111 0 -204 39t-159.5 108.5t-104.5 165.5t-38 209zM326 635h399q14 0 17 6t3 12q0 20 -12 51t-36.5 60t-61.5 49.5t-86 20.5q-90 0 -150.5 -59.5t-72.5 -139.5z" />
<glyph unicode="f" horiz-adv-x="731" d="M10 928q0 43 28 77.5t85 34.5h76v45q0 68 6 112t22 83q35 84 119 138.5t195 54.5q92 0 151.5 -29.5t59.5 -95.5q0 -41 -29 -79t-76 -38q-14 0 -26.5 2t-22.5 4t-20.5 4t-26.5 2q-47 0 -69.5 -28.5t-22.5 -94.5v-80h147q53 0 83 -33.5t30 -80.5t-30 -81t-83 -34h-147v-705 q0 -47 -39 -78.5t-92 -31.5t-91 31.5t-38 78.5v705h-76q-55 0 -84 37t-29 80z" />
<glyph unicode="g" horiz-adv-x="1146" d="M70 530q0 92 30.5 185.5t88 167t139.5 121t182 47.5q78 0 143.5 -31t108.5 -80q0 10 6 28.5t20.5 37t40 32t64.5 13.5q53 0 92 -34t39 -81v-852q0 -119 -38 -208t-104.5 -147.5t-154.5 -88t-186 -29.5q-47 0 -93.5 7t-84 19.5t-67.5 26.5t-44 31q-23 23 -35 47.5 t-12 58.5q0 37 29.5 72t82.5 35q20 0 47 -8.5t56 -22.5q27 -14 65.5 -25.5t67.5 -11.5q86 0 148.5 52.5t62.5 158.5v66q-47 -41 -115.5 -69t-138.5 -28q-100 0 -182 39t-139.5 109t-88 162t-30.5 200zM336 530q0 -139 60.5 -213.5t160.5 -74.5q53 0 97 19.5t71 51.5 q29 33 34 72t5 117v59q0 39 -1 66.5t-4 49t-11.5 39t-22.5 34.5q-27 33 -71 52t-97 19q-96 0 -158.5 -79.5t-62.5 -211.5z" />
<glyph unicode="h" horiz-adv-x="1110" d="M123 106v1256q0 49 39 80t92 31q47 0 88 -29t41 -82v-422q41 43 109.5 77t160.5 34q147 0 240.5 -104.5t93.5 -289.5v-551q0 -49 -38 -79.5t-91 -30.5t-92 30.5t-39 79.5v523q0 39 -6 70.5t-21.5 59t-45 45t-68.5 17.5q-41 0 -82 -15t-76 -50q-16 -16 -30.5 -45 t-14.5 -97v-508q0 -49 -39 -79.5t-92 -30.5t-91 30.5t-38 79.5z" />
<glyph unicode="i" horiz-adv-x="503" d="M111 1325q0 59 41 100t100 41t100 -41t41 -100t-41 -100t-100 -41t-100 41t-41 100zM123 106v834q0 47 38 79t91 32t91 -32t38 -79v-834q0 -49 -38 -79.5t-91 -30.5t-91 30.5t-38 79.5z" />
<glyph unicode="j" horiz-adv-x="503" d="M-70 -268q0 29 21.5 62.5t81.5 49.5q33 10 51 23.5t29 46.5q4 12 5 29.5t1 50.5v948q0 47 39 77t92 30t91 -32t38 -79v-944q0 -86 -14.5 -140.5t-38.5 -95.5q-41 -68 -106.5 -107.5t-151.5 -39.5q-66 0 -102 31.5t-36 89.5zM111 1325q0 59 41 100t100 41t100 -41t41 -100 t-41 -100t-100 -41t-100 41t-41 100z" />
<glyph unicode="k" horiz-adv-x="1048" d="M115 106v1256q0 47 37.5 79t91.5 32q53 0 92 -32t39 -79v-688q92 80 181 159.5t183 165.5q31 29 57.5 40.5t55.5 11.5q49 0 84 -38t35 -85q0 -16 -10.5 -41t-51.5 -64q-55 -49 -124.5 -105t-147.5 -122q27 -37 55.5 -74t64.5 -84t83 -105.5t112 -137.5q20 -25 27.5 -46.5 t7.5 -37.5q0 -43 -34.5 -79t-88.5 -36q-61 0 -106 45q-31 37 -58.5 70.5t-60.5 76.5t-77 102.5t-111 149.5q-20 -16 -37 -28.5t-39 -32.5v-273q0 -47 -39 -78.5t-92 -31.5t-91 31.5t-38 78.5z" />
<glyph unicode="l" horiz-adv-x="503" d="M123 106v1256q0 47 38 79t91 32t91 -32t38 -79v-1256q0 -47 -38 -78.5t-91 -31.5t-91 31.5t-38 78.5z" />
<glyph unicode="m" horiz-adv-x="1691" d="M123 106v834q0 49 39 80t92 31q47 0 88 -29t41 -82q41 43 106.5 77t157.5 34q72 0 139.5 -29t112.5 -84q53 47 128 80t173 33q86 0 152.5 -29t111.5 -81t67.5 -125t22.5 -159v-551q0 -49 -37.5 -79.5t-91.5 -30.5q-53 0 -92 30.5t-39 79.5v521q0 41 -7 72.5t-22.5 58 t-44 45t-69.5 18.5q-88 0 -135 -58t-47 -149v-508q0 -49 -38 -79.5t-91 -30.5t-92 30.5t-39 79.5v519q0 43 -6.5 74.5t-21.5 58t-43 45t-69 18.5q-88 0 -137 -58t-49 -149v-508q0 -49 -39 -79.5t-92 -30.5t-91 30.5t-38 79.5z" />
<glyph unicode="n" horiz-adv-x="1110" d="M123 106v834q0 49 39 80t92 31q47 0 88 -29t41 -82q41 43 109.5 77t160.5 34q147 0 240.5 -104.5t93.5 -289.5v-551q0 -49 -38 -79.5t-91 -30.5t-92 30.5t-39 79.5v517q0 45 -7 76.5t-23.5 59t-46 45t-77.5 17.5q-86 0 -138 -57t-52 -150v-508q0 -49 -39 -79.5t-92 -30.5 t-91 30.5t-38 79.5z" />
<glyph unicode="o" horiz-adv-x="1122" d="M61 520q0 117 40 214t107.5 168t159 110t193.5 39t193.5 -39t159 -110t107.5 -168t40 -214t-40 -214t-108.5 -167.5t-160 -109.5t-191.5 -39t-191 39t-160 109.5t-109 167.5t-40 214zM326 520q0 -72 18 -127t51 -94t75 -59.5t91 -20.5t91 20.5t75 59.5t51.5 94.5 t18.5 126.5q0 70 -18.5 126t-51.5 95t-75 59.5t-91 20.5t-91 -20.5t-75 -59.5t-51 -95t-18 -126z" />
<glyph unicode="p" horiz-adv-x="1138" d="M123 -279v1203q0 57 36 92t89 35q37 0 61.5 -11.5t41 -28t23.5 -36t11 -35.5q43 49 108.5 80t143.5 31q100 0 182 -42t139.5 -115t88 -168t30.5 -202q0 -94 -28.5 -188t-84 -170t-138.5 -123t-189 -47q-70 0 -138.5 26.5t-115.5 67.5v-369q0 -47 -38 -78.5t-93 -31.5 q-53 0 -91 31.5t-38 78.5zM383 485q0 -78 5 -116.5t34 -71.5q27 -33 71 -52.5t97 -19.5q100 0 160.5 80t60.5 219t-60.5 218t-160.5 79q-53 0 -97 -19.5t-71 -51.5q-14 -16 -22.5 -34t-11.5 -39.5t-4 -49t-1 -66.5v-76z" />
<glyph unicode="q" horiz-adv-x="1138" d="M61 520q0 98 31 193.5t86 169.5q72 96 157 132t167 36q78 0 143.5 -31t108.5 -80q2 16 10 35.5t24.5 36t41 28t61.5 11.5q53 0 89 -35t36 -92v-1203q0 -47 -38 -78.5t-91 -31.5q-55 0 -93 31.5t-38 78.5v367q-47 -41 -116 -67.5t-138 -26.5q-109 0 -191 47t-137 122 t-84 169t-29 188zM328 520q0 -139 60.5 -218t160.5 -79q53 0 97 19.5t71 52.5q29 33 34 72t5 116v78q0 39 -1 66.5t-4 49t-11.5 39t-22.5 34.5q-27 33 -71 52t-97 19q-100 0 -160.5 -81t-60.5 -220z" />
<glyph unicode="r" horiz-adv-x="763" d="M123 106v834q0 47 38 79t91 32q66 0 97.5 -37t33.5 -72q47 49 100.5 79t114.5 30q59 0 100 -37t41 -90q0 -49 -26.5 -86t-79.5 -37q-16 0 -25.5 1t-19.5 3t-20.5 3t-26.5 1q-20 0 -48 -5t-57 -28q-35 -29 -45 -68.5t-10 -95.5v-506q0 -49 -38 -79.5t-91 -30.5t-91 30.5 t-38 79.5z" />
<glyph unicode="s" horiz-adv-x="925" d="M66 246q0 47 31.5 77.5t82.5 30.5q29 0 55.5 -12t49.5 -41q39 -51 91 -73.5t97 -22.5q59 0 92 28.5t33 67.5q0 14 -6 29.5t-25.5 32t-55.5 32t-93 31.5l-39 10q-168 45 -232.5 123t-64.5 178q0 72 28.5 129.5t79 98.5t120 63.5t149.5 22.5q74 0 140.5 -16.5t115.5 -45.5 t78.5 -66.5t29.5 -78.5q0 -47 -30.5 -81t-77.5 -34q-27 0 -54.5 10.5t-56.5 32.5q-76 64 -160 64q-47 0 -77.5 -27t-30.5 -61q0 -18 6 -33t23.5 -28t48 -25.5t78.5 -24.5l38 -10q98 -27 162 -62t99.5 -75.5t49 -87t13.5 -95.5q0 -72 -33 -130t-87 -100t-125.5 -64.5 t-149.5 -22.5q-88 0 -161 23.5t-122 58.5q-59 41 -84.5 86t-25.5 88z" />
<glyph unicode="t" horiz-adv-x="774" d="M12 926q0 43 30 78.5t81 35.5h78v166q0 47 39 81t92 34t91 -34t38 -81v-166h164q51 0 80.5 -35.5t29.5 -78.5q0 -41 -29.5 -78t-80.5 -37h-164v-438q0 -80 28.5 -111t61.5 -31q16 0 26.5 2.5t20.5 4.5t22.5 4t26.5 2q47 0 72.5 -33t25.5 -76q0 -57 -63.5 -98t-169.5 -41 t-183 51t-106 141q-12 39 -17 81t-5 114v428h-78q-51 0 -81 37t-30 78z" />
<glyph unicode="u" horiz-adv-x="1110" d="M123 389v551q0 49 38 80t91 31t92 -31t39 -80v-534q0 -27 7 -59t24.5 -58.5t46 -45t71.5 -18.5q90 0 142.5 57.5t52.5 149.5v508q0 49 39 80t92 31t91 -31t38 -80v-834q0 -49 -39 -79.5t-92 -30.5q-47 0 -88 28.5t-41 81.5q-41 -43 -109.5 -76.5t-160.5 -33.5 q-147 0 -240.5 104.5t-93.5 288.5z" />
<glyph unicode="v" horiz-adv-x="1032" d="M43 934q0 53 41 85t92 32q35 0 66.5 -18.5t48.5 -55.5q59 -150 112.5 -300.5t118.5 -303.5q23 57 46.5 118.5t48 131t53 151.5t63.5 184q16 47 47 70t78 23q57 0 94 -34t37 -81q0 -16 -7 -46t-26 -81q-66 -176 -142.5 -362.5t-158.5 -360.5q-27 -55 -59.5 -75.5 t-73.5 -20.5q-57 0 -89 25.5t-52 70.5q-78 172 -160 367.5t-160 406.5q-8 23 -13 40.5t-5 33.5z" />
<glyph unicode="w" horiz-adv-x="1634" d="M55 938q0 47 37 80t90 33q43 0 77 -20.5t46 -63.5q20 -74 38.5 -143.5t39 -141.5t44.5 -148.5t52 -162.5q25 74 52.5 154.5t55 159.5t52.5 148.5t47 122.5q23 51 55.5 73t73.5 22t75 -21.5t54 -71.5q23 -59 52.5 -136t59 -156.5t58.5 -156.5t51 -138q31 104 70 252.5 t92 343.5q12 43 46 63.5t77 20.5q53 0 91 -33t38 -80q0 -29 -9 -57.5t-18 -57.5q-55 -190 -111.5 -369.5t-121.5 -347.5q-23 -61 -64 -83.5t-86 -22.5t-87 21.5t-68 78.5q-16 35 -36 83t-44.5 112.5t-54 149.5t-66.5 194q-39 -117 -70.5 -206t-56 -153.5t-43 -108.5 t-31.5 -73q-25 -55 -66.5 -76.5t-86.5 -21.5q-43 0 -84 22.5t-66 88.5q-72 186 -126 364t-95 318q-10 37 -17.5 60.5t-10.5 38.5t-4 25.5t-1 20.5z" />
<glyph unicode="x" horiz-adv-x="1081" d="M57 121q0 23 6.5 41t28.5 45q33 39 64.5 74.5t65.5 73.5t72 80t85 93q-68 82 -137.5 157t-141.5 163q-29 39 -28 78q0 43 37.5 84t89.5 41q35 0 59.5 -12.5t50.5 -43.5q53 -66 113.5 -138.5t120.5 -137.5q57 66 113.5 134.5t109.5 133.5q29 37 58.5 50.5t56.5 13.5 q55 0 92 -39t37 -84q0 -23 -7.5 -43.5t-33.5 -50.5q-66 -78 -132.5 -148t-138.5 -149l283 -322q23 -27 32 -49.5t9 -44.5q0 -18 -7 -41t-22.5 -41.5t-38 -30.5t-55.5 -12q-31 0 -60.5 13.5t-56.5 43.5l-243 291q-82 -98 -147.5 -176t-96.5 -117q-25 -31 -53.5 -43t-59.5 -12 q-53 0 -89 40t-36 85z" />
<glyph unicode="y" horiz-adv-x="1032" d="M43 934q0 53 41 85t92 32q35 0 66.5 -18.5t48.5 -55.5q59 -150 112.5 -301.5t118.5 -304.5q23 57 46.5 118.5t48 131t53 152.5t63.5 185q16 47 47 70t78 23q57 0 94 -34t37 -81q0 -16 -7 -46t-26 -81q-66 -176 -142.5 -363.5t-158.5 -361.5l-73 -154q-45 -92 -89 -153.5 t-88.5 -98t-88.5 -52t-89 -15.5q-61 0 -94 38t-33 79q0 33 20.5 63.5t69.5 52.5q27 12 48.5 25.5t40 33t37 47t40.5 68.5l31 58l-35 71q-78 158 -149.5 339.5t-141.5 373.5q-8 23 -13 40.5t-5 33.5z" />
<glyph unicode="z" horiz-adv-x="974" d="M61 918q0 43 31 78.5t90 35.5h572q61 0 94 -34.5t33 -79.5q0 -29 -13.5 -58t-36.5 -61q-129 -176 -204.5 -278.5t-117.5 -158t-59.5 -80t-29.5 -42.5h379q57 0 85.5 -36t28.5 -79t-28.5 -79t-85.5 -36h-611q-33 0 -55 11.5t-36.5 28t-20.5 34.5t-6 31q0 20 9 45.5 t38 72.5q90 147 193.5 284.5t207.5 285.5h-336q-59 0 -90 35.5t-31 79.5z" />
<glyph unicode="{" horiz-adv-x="712" d="M25 543q0 39 27.5 76.5t82.5 48.5l10 2q10 2 16.5 13t8.5 40l12 483q2 49 19.5 95.5t53.5 82t89 57t125 21.5h84q72 0 103.5 -35.5t31.5 -74.5t-28.5 -77t-98.5 -38h-84q-31 0 -35 -43l-12 -512q-2 -53 -20.5 -86t-51.5 -53q33 -20 51.5 -53t20.5 -87l12 -514 q4 -43 35 -43h84q70 0 98.5 -37.5t28.5 -76.5t-31.5 -75t-103.5 -36h-84q-72 0 -125 21.5t-89 57.5t-53.5 82t-19.5 95l-12 485q0 29 -7 40.5t-18 13.5l-10 2q-55 10 -82.5 48t-27.5 77z" />
<glyph unicode="|" horiz-adv-x="581" d="M162 -272v1628q0 47 38 78.5t91 31.5t91 -31.5t38 -78.5v-1628q0 -47 -38 -79t-91 -32t-91 32t-38 79z" />
<glyph unicode="}" horiz-adv-x="712" d="M25 -268q0 18 6 38.5t21.5 38t40 27.5t59.5 10h84q31 0 34 43l13 514q2 53 20.5 86t50.5 54q-33 20 -51 53t-20 86l-13 512q-4 43 -34 43h-84q-35 0 -59.5 10t-40 27.5t-21.5 38t-6 39.5q0 39 31.5 74.5t103.5 35.5h84q72 0 125 -21.5t89 -57t53 -82t19 -95.5l13 -483 q0 -29 7 -40t17 -13l11 -2q55 -10 82.5 -48t27.5 -77t-27.5 -77t-82.5 -48l-11 -2q-10 -2 -17 -13.5t-7 -40.5l-13 -485q-2 -49 -19 -95t-53 -82t-89.5 -57.5t-124.5 -21.5h-84q-72 0 -103.5 36t-31.5 75z" />
<glyph unicode="~" d="M129 526q0 39 21.5 80t59.5 74t89 53.5t111 20.5h16q72 -4 130 -30t103 -54q33 -18 53.5 -35t43.5 -17q14 0 24.5 10.5t24.5 39.5q20 41 49 63.5t74 22.5q59 0 90 -37t31 -84q0 -41 -21.5 -81t-59.5 -73t-89.5 -53t-110.5 -20h-16q-72 4 -130.5 29t-103.5 54 q-33 18 -53.5 35t-42.5 17q-14 0 -24.5 -10.5t-24.5 -38.5q-20 -41 -49 -63.5t-74 -22.5q-59 0 -90 36.5t-31 83.5z" />
<glyph unicode="&#xa1;" horiz-adv-x="499" d="M102 903q0 61 43 104.5t105 43.5q61 0 104 -43.5t43 -104.5t-43 -104t-104 -43t-104.5 43t-43.5 104zM113 -272q0 80 1 154.5t3 154.5t3 168t1 194v166q0 49 36 84t93 35t93 -35t36 -84v-166q0 -88 1 -171t3 -163.5t3 -163.5t1 -173q0 -49 -42 -81t-95 -32t-95 31.5 t-42 81.5z" />
<glyph unicode="&#xa2;" d="M145 709q0 98 30 184t83 151.5t126 108.5t161 55v142q0 35 19.5 54t53.5 19q35 0 54.5 -19.5t19.5 -53.5v-142q127 -12 213 -73q55 -39 87 -80t32 -88q0 -39 -26.5 -76t-84.5 -37q-27 0 -50 12.5t-52 40.5q-57 66 -119 74v-547q31 4 60.5 24.5t58.5 51.5q29 29 52.5 41 t49.5 12q57 0 84 -37t27 -75q0 -47 -31.5 -88t-87.5 -80q-86 -63 -213 -76v-144q0 -35 -19.5 -54t-54.5 -19t-54 19.5t-19 53.5v146q-88 12 -161 55t-126 108.5t-83 151.5t-30 185zM379 709q0 -47 13.5 -93.5t36 -84t52 -63.5t64.5 -34v549q-35 -8 -64.5 -34.5t-52 -64.5 t-36 -83t-13.5 -92z" />
<glyph unicode="&#xa3;" horiz-adv-x="1196" d="M72 670q0 45 31.5 80.5t97.5 35.5h24q-4 61 -5 98.5t-1 65.5q0 102 27.5 189.5t85 151t141.5 99t199 35.5q80 0 151.5 -23.5t127 -61t88 -85t32.5 -92.5q0 -59 -37 -91t-76 -32q-37 0 -64.5 17.5t-68.5 50.5l-12 10q-43 35 -79 54.5t-83 19.5q-31 0 -61.5 -10.5t-55 -38 t-41 -74.5t-16.5 -119q0 -29 2 -60.5t8 -103.5h252q63 0 96 -35.5t33 -80.5q0 -43 -31.5 -80t-97.5 -37h-229q2 -16 2 -32.5v-33.5q0 -80 -14.5 -141t-40.5 -102h506q63 0 95 -38t32 -79t-31 -79t-96 -38h-701q-72 0 -103.5 36t-31.5 83q0 25 9 43t23.5 36.5t29 36 t24.5 40.5q16 35 27.5 75.5t11.5 88.5q0 27 -1 44t-5 60h-45q-66 0 -97.5 37t-31.5 80z" />
<glyph unicode="&#xa4;" d="M117 1073q0 41 33.5 72t72.5 31q16 0 31.5 -5.5t28.5 -17.5l120 -117q84 47 185 47q98 0 182 -47l121 117q12 12 27.5 17.5t31.5 5.5q39 0 73 -31t34 -72q0 -33 -25 -57l-119 -121q25 -41 39.5 -90t14.5 -100q0 -104 -56 -195l115 -115q25 -25 25 -57q0 -41 -34 -71.5 t-73 -30.5q-33 0 -59 22l-117 113q-39 -20 -84 -31.5t-96 -11.5q-96 0 -180 45l-119 -115q-27 -23 -60 -22q-39 0 -72.5 30.5t-33.5 71.5q0 33 24 57l117 117q-25 43 -39 91.5t-14 101.5q0 106 51 190q-31 33 -60.5 61.5t-60.5 59.5q-25 25 -24 57zM412 705q0 -76 51 -130.5 t125 -54.5q76 0 127 54.5t51 130.5q0 78 -51 132t-127 54q-37 0 -69 -14.5t-56.5 -40t-37.5 -59t-13 -72.5z" />
<glyph unicode="&#xa5;" d="M80 1313q0 39 37 75.5t100 36.5q29 0 58.5 -12t50.5 -41l53 -80q25 -37 45 -69.5t44 -67.5t51.5 -75t66.5 -91q33 45 71.5 99.5t74.5 107.5t66.5 98t49.5 74q23 33 50.5 45t62.5 12q59 0 97 -36.5t38 -75.5q0 -16 -7.5 -33.5t-25.5 -44.5q-39 -51 -80 -107 q-35 -47 -81 -109.5t-93 -125.5h139q57 0 86 -36t29 -77t-27.5 -73.5t-87.5 -32.5h-233v-111h233q57 0 86 -34.5t29 -75.5t-27.5 -75t-87.5 -34h-233v-235q0 -49 -40 -81t-95 -32t-94.5 31.5t-39.5 81.5v235h-219q-57 0 -85.5 36t-28.5 77t27.5 73.5t86.5 32.5h219v111h-219 q-57 0 -85.5 34.5t-28.5 75.5t27.5 75t86.5 34h119q-41 55 -79 110.5t-70.5 103.5t-57 84t-37.5 54q-10 20 -16 35.5t-6 32.5z" />
<glyph unicode="&#xa6;" horiz-adv-x="593" d="M168 -262v565q0 47 38 79t91 32t91 -32t38 -79v-565q0 -47 -38 -79t-91 -32t-91 32t-38 79zM168 784v566q0 47 38 78.5t91 31.5t91 -31.5t38 -78.5v-566q0 -47 -38 -78.5t-91 -31.5t-91 31.5t-38 78.5z" />
<glyph unicode="&#xa7;" d="M137 545q0 78 40 153.5t120 139.5q-55 45 -79.5 108.5t-24.5 124.5q0 63 23.5 123.5t72.5 109t124.5 78t180.5 29.5q70 0 139.5 -17.5t124.5 -50t89 -76.5t34 -96q0 -55 -36 -85.5t-85 -30.5q-35 0 -60.5 15t-47.5 38q-35 33 -76 51.5t-94 18.5q-57 0 -93 -31t-36 -72 q0 -31 24.5 -65.5t81.5 -57.5l100 -41q98 -41 168 -84t117 -90t70.5 -102t23.5 -115q0 -78 -39.5 -154t-119.5 -139q57 -45 80.5 -108.5t23.5 -124.5q0 -63 -23.5 -123.5t-72.5 -109t-125 -78t-180 -29.5q-72 0 -140.5 17.5t-124 50t-89 75.5t-33.5 97q0 55 35.5 85.5 t84.5 30.5q35 0 60.5 -15t48.5 -38q35 -33 76 -51.5t94 -18.5q57 0 93 31t36 72q0 31 -24.5 65.5t-82.5 57.5l-100 41q-98 41 -167.5 84t-117.5 90q-47 47 -70.5 102t-23.5 115zM399 567q0 -35 19.5 -62.5t50.5 -51t68.5 -42t74.5 -32.5l78 -35q86 66 86 154 q0 35 -19.5 62.5t-50 51t-68.5 41t-75 33.5l-78 35q-86 -66 -86 -154z" />
<glyph unicode="&#xa8;" horiz-adv-x="1146" d="M248 1292q0 53 37 90t90 37t90 -36.5t37 -90.5q0 -53 -37 -90t-90 -37t-90 37t-37 90zM643 1292q0 53 37 90t90 37t90 -36.5t37 -90.5q0 -53 -37 -90t-90 -37t-90 37t-37 90z" />
<glyph unicode="&#xa9;" horiz-adv-x="1656" d="M96 711q0 133 45 261t135.5 229.5t225.5 162.5t317 61q180 0 316.5 -61t225.5 -162.5t134 -229.5t45 -261t-45 -263.5t-135 -231.5t-225.5 -163.5t-315.5 -62.5t-315 62.5t-226.5 163.5t-136.5 231.5t-45 263.5zM264 711q0 -102 35 -202.5t104.5 -179.5t173 -128 t242.5 -49q137 0 241.5 49t173.5 128t103.5 179.5t34.5 202.5q0 100 -34.5 199.5t-103.5 178t-173.5 127t-241.5 48.5q-139 0 -243.5 -48.5t-173 -127t-103.5 -178t-35 -199.5zM408 711q0 92 29.5 172t82.5 138t130 92t169 34t164 -36t113 -79q43 -53 43 -94 q0 -27 -23.5 -52.5t-58.5 -27.5q-20 0 -39 7t-37 30q-35 41 -73 66.5t-97 25.5q-57 0 -99 -24.5t-70 -63.5t-42 -88t-14 -100q0 -53 15 -104.5t44 -91.5t70 -64.5t92 -24.5q55 0 94 21.5t80 72.5q18 23 38.5 30t39.5 7q29 0 54.5 -22.5t25.5 -55.5q0 -31 -23.5 -67.5 t-65.5 -68.5t-101.5 -53.5t-129.5 -21.5q-102 0 -179 38t-128 99.5t-77.5 141.5t-26.5 164z" />
<glyph unicode="&#xaa;" horiz-adv-x="694" d="M49 1110q0 74 20.5 133.5t54.5 99t78 61t91 21.5q45 0 80 -15t69 -50q8 31 36 48t63 17q37 0 66.5 -21.5t29.5 -74.5v-323q0 -25 6 -39.5t14 -24.5q8 -12 14.5 -25.5t6.5 -31.5q0 -35 -26.5 -63.5t-73.5 -28.5q-35 0 -64 19t-45 54q-35 -41 -85 -57t-91 -16 q-47 0 -91 21.5t-78 62.5t-54.5 99t-20.5 134zM51 629q0 39 27.5 70.5t85.5 31.5h397q55 0 84 -31.5t29 -70.5t-29 -71t-84 -32h-397q-57 0 -85 32t-28 71zM242 1112q0 -66 28.5 -104.5t73.5 -38.5q25 0 46.5 9t33.5 26q14 16 16 33.5t2 56.5v43q0 37 -2 54t-16 34 q-29 35 -80 35q-47 0 -74.5 -43t-27.5 -105z" />
<glyph unicode="&#xab;" d="M111 518q0 39 28 86q18 29 49 67t63 75.5t62.5 71.5t48.5 52q27 29 55.5 40.5t57.5 11.5q47 0 81 -28t34 -73q0 -18 -8.5 -39.5t-26.5 -44.5q-20 -25 -59 -68.5t-105 -115.5q-20 -23 -20 -35t20 -35q66 -72 105 -115.5t59 -68.5q18 -23 26.5 -44.5t8.5 -39.5 q0 -45 -34 -72.5t-81 -27.5q-29 0 -57.5 11t-55.5 40q-18 18 -48.5 52t-62.5 72t-62.5 75.5t-49.5 66.5q-29 47 -28 86zM563 518q0 39 29 86q18 29 49 67t62.5 75.5t62.5 71.5t49 52q27 29 55.5 40.5t57.5 11.5q47 0 80.5 -28t33.5 -73q0 -18 -8 -39.5t-26 -44.5 q-20 -25 -59.5 -68.5t-104.5 -115.5q-21 -23 -21 -35t21 -35q66 -72 104.5 -115.5t59.5 -68.5q18 -23 26 -44.5t8 -39.5q0 -45 -33.5 -72.5t-80.5 -27.5q-29 0 -57.5 11t-55.5 40q-18 18 -49 52t-62.5 72t-62.5 75.5t-49 66.5q-29 47 -29 86z" />
<glyph unicode="&#xac;" d="M96 614q0 45 32 82t95 37h699q53 0 91 -29.5t38 -74.5v-426q0 -53 -34 -78t-85 -25q-49 0 -86 25t-37 78v297h-586q-66 0 -96.5 35.5t-30.5 78.5z" />
<glyph unicode="&#xad;" horiz-adv-x="663" d="M59 555q0 43 30 79t91 36h303q59 0 90 -36t31 -79t-30.5 -79t-90.5 -36h-303q-61 0 -91 36t-30 79z" />
<glyph unicode="&#xae;" horiz-adv-x="1656" d="M96 711q0 133 45 261t135.5 229.5t225.5 162.5t317 61q180 0 316.5 -61t225.5 -162.5t134 -229.5t45 -261t-45 -263.5t-135 -231.5t-225.5 -163.5t-315.5 -62.5t-315 62.5t-226.5 163.5t-136.5 231.5t-45 263.5zM264 711q0 -102 35 -202.5t104.5 -179.5t173 -128 t242.5 -49q137 0 241.5 49t173.5 128t103.5 179.5t34.5 202.5q0 100 -34.5 199.5t-103.5 178t-173.5 127t-241.5 48.5q-139 0 -243.5 -48.5t-173 -127t-103.5 -178t-35 -199.5zM549 375v692q0 29 22.5 57.5t63.5 28.5h180q74 0 128 -23.5t91 -61.5t54.5 -85t17.5 -92 q0 -70 -42 -135.5t-120 -98.5q37 -51 82 -107t80 -95q20 -27 26.5 -47.5t6.5 -30.5q0 -39 -31 -62.5t-59 -23.5q-45 0 -80 47q-16 20 -41 51t-51.5 68t-55 76.5t-55.5 78.5q-8 12 -23 13h-24v-250q0 -39 -23.5 -61.5t-60.5 -22.5t-61.5 22.5t-24.5 61.5zM719 774h94 q55 0 84 36t29 81q0 39 -27 73.5t-84 34.5h-96v-225z" />
<glyph unicode="&#xaf;" horiz-adv-x="1146" d="M254 1292q0 39 26.5 70t79.5 31h428q53 0 80 -31t27 -70t-26.5 -71.5t-80.5 -32.5h-428q-53 0 -79.5 32.5t-26.5 71.5z" />
<glyph unicode="&#xb0;" horiz-adv-x="991" d="M164 1155q0 68 25.5 125t70.5 100t105.5 68t130.5 25t130 -25t105 -68t70.5 -100t25.5 -125t-25.5 -125t-70.5 -100t-105.5 -67.5t-129.5 -24.5q-70 0 -130.5 24.5t-105.5 67.5t-70.5 100t-25.5 125zM381 1155q0 -57 31.5 -90t83.5 -33q51 0 82.5 33t31.5 90t-31.5 90 t-82.5 33t-83 -33t-32 -90z" />
<glyph unicode="&#xb1;" d="M123 127q0 43 28.5 78t86.5 35h700q55 0 85 -37t30 -80t-29 -78t-86 -35h-700q-55 0 -85 37t-30 80zM123 764q0 43 28.5 78t86.5 35h229v229q0 53 38 80.5t85 27.5q45 0 82 -26.5t37 -81.5v-229h229q55 0 85 -37t30 -80t-29 -78t-86 -35h-229v-229q0 -53 -38 -81t-85 -28 q-45 0 -82 26.5t-37 82.5v229h-229q-55 0 -85 37t-30 80z" />
<glyph unicode="&#xb2;" horiz-adv-x="704" d="M51 1182q0 47 20.5 91t56.5 77.5t87 54t113 20.5q66 0 119 -20.5t89.5 -55t57 -81.5t20.5 -103q0 -98 -70.5 -187t-174.5 -167l-17 -12h195q43 0 69.5 -21.5t26.5 -66.5q0 -35 -26.5 -61.5t-69.5 -26.5h-381q-51 0 -80 28.5t-29 67.5q0 51 49 92l154 129q74 61 118 115.5 t44 109.5q0 35 -25.5 61.5t-70.5 26.5q-47 0 -71 -23.5t-24 -53.5q0 -8 5 -25q4 -16 4 -29q0 -29 -21.5 -51t-68.5 -22q-25 0 -49.5 15t-39.5 50q-6 18 -8 33.5t-2 34.5z" />
<glyph unicode="&#xb3;" horiz-adv-x="704" d="M72 821q0 27 21.5 55.5t66.5 28.5q57 0 88 -59q12 -23 38.5 -42.5t63.5 -19.5q53 0 78 29t25 59q0 35 -26 54.5t-79 29.5l-20 5q-92 18 -92 77q0 35 34 80l92 113h-186q-39 0 -66.5 22.5t-27.5 63.5q0 35 27.5 61.5t66.5 26.5h330q47 0 74.5 -28.5t27.5 -67.5 q0 -27 -8 -43.5t-22 -34.5l-113 -139q86 -29 130 -91.5t44 -128.5q0 -53 -20.5 -100t-57.5 -82t-90 -56.5t-119 -21.5q-59 0 -111.5 20.5t-84.5 47.5q-37 31 -60.5 71t-23.5 70z" />
<glyph unicode="&#xb4;" horiz-adv-x="1146" d="M344 1219q0 29 17.5 58.5t58.5 51.5l215 125q16 10 33.5 14.5t33.5 4.5q47 0 78 -30t31 -71q0 -29 -17.5 -57.5t-58.5 -52.5l-215 -125q-16 -10 -33.5 -14.5t-33.5 -4.5q-47 0 -78 30t-31 71z" />
<glyph unicode="&#xb5;" horiz-adv-x="1093" d="M115 -274v1206q0 47 37.5 78.5t91.5 31.5q53 0 92 -31.5t39 -78.5v-520q0 -72 43 -128.5t129 -56.5q80 0 126 54.5t46 130.5v520q0 47 39 78.5t92 31.5t91 -31.5t38 -78.5v-821q0 -47 -38 -81t-91 -34q-37 0 -67.5 16.5t-47.5 42.5q-84 -59 -184 -59q-45 0 -90 12t-86 39 v-321q0 -47 -39 -81t-92 -34t-91 33.5t-38 81.5z" />
<glyph unicode="&#xb6;" d="M102 1008q0 74 29 145.5t83 126.5t134 90t182 35h433q66 0 97.5 -37t31.5 -84q0 -45 -32 -83t-91 -38v-1370q0 -53 -37 -78.5t-80 -25.5t-79 25.5t-36 78.5v1370h-137v-1370q0 -53 -37 -78.5t-80 -25.5t-78.5 25.5t-35.5 78.5v869q-139 45 -203 141t-64 205z" />
<glyph unicode="&#xb7;" horiz-adv-x="475" d="M90 733q0 61 43 104.5t105 43.5q61 0 104 -43t43 -105q0 -61 -43 -104t-104 -43t-104.5 43t-43.5 104z" />
<glyph unicode="&#xb8;" horiz-adv-x="1146" d="M369 -291q0 23 15 43.5t46 20.5q8 0 15.5 -2t23.5 -11q16 -8 36.5 -15t43.5 -7q18 0 32.5 10t14.5 31q0 12 -9 24.5t-26 16.5l-88 12q-35 4 -49 21.5t-14 40.5q0 14 4 27t12 34l25 65q10 29 28.5 39.5t38.5 10.5q25 0 47.5 -14.5t22.5 -45.5q0 -6 -6.5 -24.5t-12.5 -38.5 q78 -6 129.5 -44t51.5 -124q0 -68 -49.5 -118t-139.5 -50q-45 0 -78.5 8t-60.5 21q-27 12 -40 31.5t-13 37.5z" />
<glyph unicode="&#xb9;" horiz-adv-x="669" d="M35 711q0 33 24.5 60.5t63.5 27.5h119v383l-52 -31q-18 -10 -33.5 -15.5t-25.5 -5.5q-47 0 -69.5 26t-22.5 58q0 16 13.5 43t43.5 46l172 102q35 20 68 20q47 0 73.5 -27.5t26.5 -74.5v-524h109q41 0 65.5 -28t24.5 -60q0 -35 -24.5 -61.5t-65.5 -26.5h-422 q-39 0 -63.5 26.5t-24.5 61.5z" />
<glyph unicode="&#xba;" horiz-adv-x="696" d="M49 629q0 39 27.5 70.5t85.5 31.5h373q55 0 83.5 -31.5t28.5 -70.5t-28.5 -71t-83.5 -32h-373q-57 0 -85 32t-28 71zM49 1112q0 70 23.5 127t64.5 98t95.5 64.5t115.5 23.5t115.5 -23.5t95.5 -64.5t64.5 -98t23.5 -127t-23.5 -127t-64.5 -99t-95 -64.5t-116 -22.5 q-61 0 -115.5 22.5t-95.5 64.5t-64.5 99t-23.5 127zM244 1112q0 -70 31.5 -109.5t72.5 -39.5t73 39.5t32 109.5t-32 110t-73 40t-72.5 -40t-31.5 -110z" />
<glyph unicode="&#xbb;" d="M111 215q0 18 8 39.5t26 44.5q20 25 59.5 69t104.5 115q21 23 21 35t-21 35q-66 72 -104.5 116l-59.5 68q-18 23 -26 44.5t-8 39.5q0 45 33.5 73t80.5 28q29 0 57.5 -11.5t55.5 -40.5q18 -18 49 -52t62.5 -71.5t62.5 -75.5t49 -67q29 -47 29 -86t-29 -86 q-18 -29 -49 -66.5t-62.5 -75.5t-62.5 -72t-49 -52q-27 -29 -55.5 -40t-57.5 -11q-47 0 -80.5 27.5t-33.5 72.5zM563 215q0 18 8.5 39.5t26.5 44.5q20 25 59 69t105 115q20 23 20 35t-20 35q-66 72 -105 116t-59 68q-18 23 -26.5 44.5t-8.5 39.5q0 45 34 73t81 28 q29 0 57.5 -11.5t55.5 -40.5q18 -18 48.5 -52t62.5 -71.5t62.5 -75.5t49.5 -67q29 -47 28 -86q0 -39 -28 -86q-18 -29 -49 -66.5t-63 -75.5t-62.5 -72t-48.5 -52q-27 -29 -55.5 -40t-57.5 -11q-47 0 -81 27.5t-34 72.5z" />
<glyph unicode="&#xbc;" horiz-adv-x="1716" d="M88 711q0 33 24.5 60.5t63.5 27.5h119v383l-51 -31q-18 -10 -33.5 -15.5t-26.5 -5.5q-47 0 -69.5 26t-22.5 58q0 16 13.5 43t44.5 46l172 102q35 20 67 20q47 0 73.5 -27.5t26.5 -74.5v-524h109q41 0 65.5 -28t24.5 -60q0 -35 -24.5 -61.5t-65.5 -26.5h-422 q-39 0 -63.5 26.5t-24.5 61.5zM395 78q0 23 12.5 45t24.5 41l830 1212q18 29 41.5 39t44.5 10q35 0 64.5 -23.5t29.5 -64.5q0 -20 -12.5 -43.5t-26.5 -44.5l-830 -1214q-18 -27 -42.5 -36t-45.5 -9q-35 0 -62.5 24.5t-27.5 63.5zM989 274q0 27 27 72q27 43 61.5 95.5 t73.5 107.5t78 109.5t74 101.5q20 27 48.5 40t57.5 13q43 0 73.5 -27.5t30.5 -80.5v-369h48q43 0 64.5 -26.5t21.5 -59.5q0 -31 -21.5 -56.5t-64.5 -25.5h-48v-76q0 -41 -24.5 -66.5t-67.5 -25.5q-41 0 -67.5 25.5t-26.5 66.5v76h-227q-47 0 -79 29.5t-32 76.5zM1186 334 h145v209z" />
<glyph unicode="&#xbd;" horiz-adv-x="1716" d="M72 711q0 33 24.5 60.5t63.5 27.5h119v383l-52 -31q-18 -10 -33.5 -15.5t-25.5 -5.5q-47 0 -69.5 26t-22.5 58q0 16 13 43t44 46l172 102q35 20 68 20q47 0 73.5 -27.5t26.5 -74.5v-524h109q41 0 65.5 -28t24.5 -60q0 -35 -24.5 -61.5t-65.5 -26.5h-422q-39 0 -63.5 26.5 t-24.5 61.5zM379 76q0 23 12 45t25 41l829 1214q18 29 42 39t44 10q35 0 64.5 -23.5t29.5 -64.5q0 -20 -12 -43.5t-27 -44.5l-829 -1216q-18 -27 -43 -36t-45 -9q-35 0 -62.5 24.5t-27.5 63.5zM1055 569q0 47 20.5 91.5t56 78t87 54t112.5 20.5q66 0 119 -20.5t90 -55.5 t57.5 -82t20.5 -102q0 -98 -70.5 -187.5t-175.5 -166.5l-16 -13h194q43 0 70 -21.5t27 -66.5q0 -35 -27 -61.5t-70 -26.5h-381q-51 0 -79.5 29t-28.5 67q0 51 49 93l154 129q74 61 117.5 115.5t43.5 109.5q0 35 -25.5 61.5t-70.5 26.5q-47 0 -70.5 -23.5t-23.5 -54.5 q0 -8 4 -24t4 -29q0 -29 -21.5 -51.5t-68.5 -22.5q-25 0 -49.5 15.5t-38.5 50.5q-6 18 -8 33.5t-2 33.5z" />
<glyph unicode="&#xbe;" horiz-adv-x="1716" d="M106 813q0 27 22 55.5t67 28.5q57 0 88 -59q12 -23 38.5 -42.5t63.5 -19.5q53 0 77.5 31t24.5 61q0 66 -104 88l-21 5q-92 18 -92 77q0 35 35 80l92 113h-186q-39 0 -66.5 22.5t-27.5 63.5q0 35 27.5 61.5t66.5 26.5h330q47 0 74.5 -28.5t27.5 -67.5q0 -27 -8 -43.5 t-23 -34.5l-112 -139q86 -29 130 -93.5t44 -130.5q0 -53 -20.5 -100t-57.5 -84t-90 -58.5t-119 -21.5q-59 0 -111.5 20.5t-85.5 47.5q-37 31 -60.5 70.5t-23.5 70.5zM387 78q0 23 12.5 45t24.5 41l829 1212q18 29 42 39t44 10q35 0 65 -23.5t30 -64.5q0 -20 -12.5 -43.5 t-26.5 -44.5l-830 -1214q-18 -27 -42.5 -36t-45.5 -9q-35 0 -62.5 24.5t-27.5 63.5zM981 274q0 27 27 72q27 43 61.5 95.5t73.5 107.5t78 109.5t73 101.5q20 27 49 40t58 13q43 0 73.5 -27.5t30.5 -80.5v-369h47q43 0 64.5 -26.5t21.5 -59.5q0 -31 -21.5 -56.5t-64.5 -25.5 h-47v-76q0 -41 -24.5 -66.5t-67.5 -25.5q-41 0 -67.5 25.5t-26.5 66.5v76h-227q-47 0 -79 29.5t-32 76.5zM1178 334h145v209z" />
<glyph unicode="&#xbf;" horiz-adv-x="1091" d="M111 -12q0 51 10 93t31.5 79t53.5 72.5t75 72.5q43 39 72.5 70t48 60.5t28.5 60t16 69.5l3 15q8 53 42.5 76.5t75.5 23.5q49 0 92 -34t43 -99q0 -109 -56 -194t-130 -150l-20 -19q-66 -59 -91.5 -100t-25.5 -90q0 -74 55 -112t123 -38q35 0 68.5 10.5t59.5 30t42 49 t16 70.5v19q0 55 34 83.5t79 28.5q49 0 93 -37t44 -114q0 -61 -28.5 -127t-84 -120t-135 -89t-182.5 -35q-94 0 -177 28.5t-144.5 79t-96 119t-34.5 148.5zM420 901q0 61 43 104.5t104 43.5t104.5 -43.5t43.5 -104.5t-43 -104t-105 -43q-61 0 -104 43t-43 104z" />
<glyph unicode="&#xc0;" horiz-adv-x="1441" d="M74 119q0 14 3 31.5t17 56.5q102 281 224 566.5t257 555.5q23 47 65 71.5t89 24.5q43 0 83 -22.5t65 -73.5q127 -254 241.5 -528.5t231.5 -593.5q14 -39 17 -56.5t3 -31.5q0 -59 -40 -91t-91 -32q-39 0 -76 21.5t-53 72.5l-109 289h-567l-102 -289q-16 -51 -52 -72.5 t-75 -21.5q-51 0 -91 31.5t-40 91.5zM446 1737q0 41 31 70.5t78 29.5q16 0 33.5 -4t34.5 -14l215 -125q41 -25 58 -53.5t17 -57.5q0 -41 -30.5 -70.5t-77.5 -29.5q-16 0 -33.5 4t-34.5 14l-215 125q-41 23 -58.5 52.5t-17.5 58.5zM520 614h395q-16 41 -39.5 98.5t-49 121 t-53 129t-52.5 122.5q-25 -55 -51.5 -117.5l-53 -125t-51 -120.5t-45.5 -108z" />
<glyph unicode="&#xc1;" horiz-adv-x="1441" d="M74 119q0 14 3 31.5t17 56.5q102 281 224 566.5t257 555.5q23 47 65 71.5t89 24.5q43 0 83 -22.5t65 -73.5q127 -254 241.5 -528.5t231.5 -593.5q14 -39 17 -56.5t3 -31.5q0 -59 -40 -91t-91 -32q-39 0 -76 21.5t-53 72.5l-109 289h-567l-102 -289q-16 -51 -52 -72.5 t-75 -21.5q-51 0 -91 31.5t-40 91.5zM508 1589q0 29 17.5 58.5t58.5 52.5l215 125q16 10 33.5 14t33.5 4q47 0 78 -29.5t31 -70.5q0 -29 -17.5 -57.5t-58.5 -53.5l-215 -125q-16 -10 -33.5 -14t-34.5 -4q-47 0 -77.5 29.5t-30.5 70.5zM520 614h395q-16 41 -39.5 98.5 t-49 121t-53 129t-52.5 122.5q-25 -55 -51.5 -117.5l-53 -125t-51 -120.5t-45.5 -108z" />
<glyph unicode="&#xc2;" horiz-adv-x="1441" d="M74 119q0 14 3 31.5t17 56.5q102 281 224 566.5t257 555.5q23 47 65 71.5t89 24.5q43 0 83 -22.5t65 -73.5q127 -254 241.5 -528.5t231.5 -593.5q14 -39 17 -56.5t3 -31.5q0 -59 -40 -91t-91 -32q-39 0 -76 21.5t-53 72.5l-109 289h-567l-102 -289q-16 -51 -52 -72.5 t-75 -21.5q-51 0 -91 31.5t-40 91.5zM430 1581q0 18 9.5 41t41.5 51l144 129q43 41 96 41t96 -41l144 -129q33 -29 42 -51.5t9 -40.5q0 -41 -28 -70.5t-69 -29.5q-43 0 -79 35l-115 106l-115 -106q-37 -35 -80 -35q-41 0 -68.5 29.5t-27.5 70.5zM520 614h395 q-16 41 -39.5 98.5t-49 121t-53 129t-52.5 122.5q-25 -55 -51.5 -117.5l-53 -125t-51 -120.5t-45.5 -108z" />
<glyph unicode="&#xc3;" horiz-adv-x="1441" d="M74 119q0 14 3 31.5t17 56.5q102 281 224 566.5t257 555.5q23 47 65 71.5t89 24.5q43 0 83 -22.5t65 -73.5q127 -254 241.5 -528.5t231.5 -593.5q14 -39 17 -56.5t3 -31.5q0 -59 -40 -91t-91 -32q-39 0 -76 21.5t-53 72.5l-109 289h-567l-102 -289q-16 -51 -52 -72.5 t-75 -21.5q-51 0 -91 31.5t-40 91.5zM395 1624q0 25 10.5 56.5t34 61.5t61.5 50t91 20q61 0 107 -23t81 -48q14 -10 21.5 -13.5t11.5 -3.5q16 0 27 19l6 10q14 23 35.5 37t52.5 14q35 0 66.5 -23.5t31.5 -72.5q0 -25 -10 -56.5t-33.5 -61t-61.5 -50t-91 -20.5 q-61 0 -107.5 23.5t-81.5 47.5q-14 10 -21.5 13.5t-11.5 3.5q-16 0 -26 -19l-6 -10q-14 -23 -36 -37t-52 -14q-35 0 -67 23.5t-32 72.5zM520 614h395q-16 41 -39.5 98.5t-49 121t-53 129t-52.5 122.5q-25 -55 -51.5 -117.5l-53 -125t-51 -120.5t-45.5 -108z" />
<glyph unicode="&#xc4;" horiz-adv-x="1441" d="M74 119q0 14 3 31.5t17 56.5q102 281 224 566.5t257 555.5q23 47 65 71.5t89 24.5q43 0 83 -22.5t65 -73.5q127 -254 241.5 -528.5t231.5 -593.5q14 -39 17 -56.5t3 -31.5q0 -59 -40 -91t-91 -32q-39 0 -76 21.5t-53 72.5l-109 289h-567l-102 -289q-16 -51 -52 -72.5 t-75 -21.5q-51 0 -91 31.5t-40 91.5zM395 1665q0 53 37 90t90 37t90 -37t37 -90t-37 -90t-90 -37t-90 37t-37 90zM520 614h395q-16 41 -39.5 98.5t-49 121t-53 129t-52.5 122.5q-25 -55 -51.5 -117.5l-53 -125t-51 -120.5t-45.5 -108zM791 1665q0 53 36.5 90t90.5 37 q53 0 89.5 -37t36.5 -90t-36.5 -90t-89.5 -37t-90 37t-37 90z" />
<glyph unicode="&#xc5;" horiz-adv-x="1441" d="M74 119q0 14 3 31.5t17 56.5q102 281 224 566.5t257 555.5q23 47 63 71.5t87 24.5q43 0 85 -22.5t67 -73.5q127 -254 241.5 -528.5t231.5 -593.5q14 -39 17 -56.5t3 -31.5q0 -59 -40 -91t-91 -32q-39 0 -76 21.5t-53 72.5l-109 289h-567l-102 -289q-16 -51 -52 -72.5 t-75 -21.5q-51 0 -91 31.5t-40 91.5zM520 614h395q-16 41 -39.5 98.5t-49 121t-53 129t-52.5 122.5q-25 -55 -51.5 -117.5l-53 -125t-51 -120.5t-45.5 -108zM545 1663q0 37 14 69.5t39 57.5t57.5 39t69.5 14t69.5 -14t57.5 -39t39 -57.5t14 -69.5t-14 -69.5t-39 -58.5 t-57.5 -40t-69.5 -14t-69.5 14t-57.5 40t-39 58.5t-14 69.5zM655 1663q0 -33 18.5 -54.5t51.5 -21.5q31 0 49.5 21.5t18.5 54.5q0 29 -18.5 50.5t-49.5 21.5q-33 0 -51.5 -21.5t-18.5 -50.5z" />
<glyph unicode="&#xc6;" horiz-adv-x="1878" d="M55 117q0 41 23 82q41 68 98 161t125 198.5t139.5 217t141 216t132 195.5t111.5 159q23 33 54.5 46t68.5 13h715q59 0 89 -38t30 -83q0 -43 -30 -79t-89 -36h-463v-342h410q59 0 90 -36.5t31 -81.5t-30 -81t-91 -36h-410v-346h467q59 0 91 -38t32 -83q0 -43 -30.5 -79 t-92.5 -36h-604q-53 0 -92 30t-39 75v266h-440l-195 -320q-16 -27 -45 -46t-64 -19q-68 0 -100.5 37t-32.5 84zM641 616h291v453q-29 -43 -63.5 -97t-73.5 -113.5t-78 -122t-76 -120.5z" />
<glyph unicode="&#xc7;" horiz-adv-x="1370" d="M94 709q0 152 47 282.5t134 227t211 151.5t276 55q74 0 141.5 -16t124.5 -42t104.5 -59.5t79.5 -70.5q68 -74 68 -145q0 -39 -34 -77t-89 -40q-29 0 -56.5 10t-56.5 45q-59 70 -125.5 115t-168.5 45q-98 0 -170 -42t-120 -110.5t-71.5 -154.5t-23.5 -174 q0 -90 25.5 -177.5t74.5 -155t119.5 -109.5t158.5 -42q49 0 89 9.5t75 29t69 50t68 73.5q29 35 57.5 45t57.5 10q45 0 83 -32.5t38 -81.5t-38 -107.5t-105.5 -110t-161.5 -85t-207 -35.5q-4 -10 -7 -20.5t-7 -22.5q78 -6 129 -44t51 -124q0 -68 -49 -118t-140 -50 q-45 0 -78.5 8t-60.5 21q-27 12 -40 31.5t-13 37.5q0 23 15.5 43.5t45.5 20.5q8 0 15.5 -2t23.5 -11q16 -8 37 -15t43 -7q18 0 32.5 10t14.5 31q0 12 -9 24.5t-26 16.5l-88 12q-35 4 -49 21.5t-14 40.5q0 14 4 27t12 34l17 47q-131 25 -230.5 92.5t-167 162.5t-101.5 212 t-34 240z" />
<glyph unicode="&#xc8;" horiz-adv-x="1073" d="M135 115v1171q0 47 39 83t90 36h600q61 0 92 -37t31 -82t-30.5 -81t-92.5 -36h-463v-342h410q61 0 92 -36.5t31 -81.5t-31 -81t-92 -36h-410v-346h467q63 0 94 -37t31 -82t-30.5 -81t-94.5 -36h-604q-51 0 -90 30t-39 75zM303 1743q0 41 31 70.5t78 29.5q16 0 33.5 -4 t33.5 -14l215 -125q41 -25 58.5 -53.5t17.5 -57.5q0 -41 -30.5 -70.5t-77.5 -29.5q-16 0 -34 4t-34 14l-215 125q-41 23 -58.5 52.5t-17.5 58.5z" />
<glyph unicode="&#xc9;" horiz-adv-x="1073" d="M135 115v1171q0 47 39 83t90 36h600q61 0 92 -37t31 -82t-30.5 -81t-92.5 -36h-463v-342h410q61 0 92 -36.5t31 -81.5t-31 -81t-92 -36h-410v-346h467q63 0 94 -37t31 -82t-30.5 -81t-94.5 -36h-604q-51 0 -90 30t-39 75zM324 1589q0 29 17 58.5t58 52.5l215 125 q16 10 34 14t34 4q47 0 78 -29.5t31 -70.5q0 -29 -17.5 -57.5t-58.5 -53.5l-215 -125q-16 -10 -33.5 -14t-34.5 -4q-47 0 -77.5 29.5t-30.5 70.5z" />
<glyph unicode="&#xca;" horiz-adv-x="1073" d="M135 115v1171q0 47 39 83t90 36h600q61 0 92 -37t31 -82t-30.5 -81t-92.5 -36h-463v-342h410q61 0 92 -36.5t31 -81.5t-31 -81t-92 -36h-410v-346h467q63 0 94 -37t31 -82t-30.5 -81t-94.5 -36h-604q-51 0 -90 30t-39 75zM258 1581q0 18 9 41t42 51l144 129q43 41 96 41 t96 -41l143 -129q33 -29 42.5 -51.5t9.5 -40.5q0 -41 -28 -70.5t-69 -29.5q-43 0 -79 35l-115 106l-115 -106q-37 -35 -80 -35q-41 0 -68.5 29.5t-27.5 70.5z" />
<glyph unicode="&#xcb;" horiz-adv-x="1073" d="M135 115v1171q0 47 39 83t90 36h600q61 0 92 -37t31 -82t-30.5 -81t-92.5 -36h-463v-342h410q61 0 92 -36.5t31 -81.5t-31 -81t-92 -36h-410v-346h467q63 0 94 -37t31 -82t-30.5 -81t-94.5 -36h-604q-51 0 -90 30t-39 75zM233 1665q0 53 37 90t90 37t90 -37t37 -90 t-36.5 -90t-90.5 -37q-53 0 -90 37t-37 90zM629 1665q0 53 36.5 90t90.5 37q53 0 90 -37t37 -90t-37 -90t-90 -37t-90 37t-37 90z" />
<glyph unicode="&#xcc;" horiz-adv-x="536" d="M35 1743q0 41 30.5 70.5t77.5 29.5q16 0 34 -4t34 -14l215 -125q41 -25 58.5 -53.5t17.5 -57.5q0 -41 -31 -70.5t-78 -29.5q-16 0 -33.5 4t-33.5 14l-215 125q-41 23 -58.5 52.5t-17.5 58.5zM135 117v1181q0 49 39 83t94 34t94 -33.5t39 -83.5v-1181q0 -49 -38.5 -83 t-94.5 -34q-55 0 -94 34t-39 83z" />
<glyph unicode="&#xcd;" horiz-adv-x="536" d="M35 1589q0 29 17.5 58.5t58.5 52.5l215 125q16 10 33.5 14t33.5 4q47 0 78 -29.5t31 -70.5q0 -29 -17.5 -57.5t-58.5 -53.5l-215 -125q-16 -10 -33.5 -14t-34.5 -4q-47 0 -77.5 29.5t-30.5 70.5zM135 117v1181q0 49 39 83t94 34t94 -33.5t39 -83.5v-1181q0 -49 -38.5 -83 t-94.5 -34q-55 0 -94 34t-39 83z" />
<glyph unicode="&#xce;" horiz-adv-x="536" d="M-23 1581q0 18 9.5 41t42.5 51l143 129q43 41 96 41t97 -41l143 -129q33 -29 42 -51.5t9 -40.5q0 -41 -27.5 -70.5t-68.5 -29.5q-43 0 -80 35l-115 106l-114 -106q-37 -35 -80 -35q-41 0 -69 29.5t-28 70.5zM135 117v1181q0 49 39 83t94 34t94 -33.5t39 -83.5v-1181 q0 -49 -38.5 -83t-94.5 -34q-55 0 -94 34t-39 83z" />
<glyph unicode="&#xcf;" horiz-adv-x="536" d="M-55 1665q0 53 36.5 90t90.5 37q53 0 90 -37t37 -90t-37 -90t-90 -37t-90 37t-37 90zM135 117v1181q0 49 39 83t94 34t94 -33.5t39 -83.5v-1181q0 -49 -38.5 -83t-94.5 -34q-55 0 -94 34t-39 83zM340 1665q0 53 37 90t90 37t90 -37t37 -90t-37 -90t-90 -37t-90 37t-37 90 z" />
<glyph unicode="&#xd0;" horiz-adv-x="1384" d="M8 711q0 41 35 72.5t84 31.5h8v471q0 45 38 82t93 37h303q147 0 278.5 -48t230 -139.5t155.5 -220.5t57 -290q0 -154 -53 -282t-148.5 -220t-225.5 -143.5t-283 -51.5h-314q-53 0 -92 30t-39 73v493h-8q-49 0 -84 31t-35 74zM401 246h183q96 0 175 33.5t135 95t87 145.5 t31 187q0 98 -30 183t-85 147.5t-137 97t-187 34.5h-172v-354h111q49 0 85 -31.5t36 -72.5q0 -43 -36 -74t-85 -31h-111v-360z" />
<glyph unicode="&#xd1;" horiz-adv-x="1449" d="M135 113v1167q0 70 45 102.5t105 32.5q37 0 68.5 -15.5t60.5 -53.5q92 -117 175 -224.5t160.5 -211t151.5 -207t150 -216.5v811q0 49 38.5 83t92.5 34q55 0 94 -33.5t39 -83.5v-1187q0 -49 -40 -82t-93 -33q-57 0 -87 25.5t-55 60.5l-43 61q-141 203 -293.5 396.5 t-304.5 410.5v-837q0 -49 -38.5 -83t-92.5 -34q-55 0 -94 33.5t-39 83.5zM399 1624q0 25 10.5 56.5t34 61.5t61.5 50t91 20q61 0 107 -23t81 -48q14 -10 21.5 -13.5t11.5 -3.5q16 0 27 19l6 10q14 23 35.5 37t52.5 14q35 0 66.5 -23.5t31.5 -72.5q0 -25 -10 -56.5t-33.5 -61 t-61.5 -50t-91 -20.5q-61 0 -107.5 23.5t-81.5 47.5q-14 10 -21 13.5t-12 3.5q-16 0 -26 -19l-6 -10q-14 -23 -36 -37t-52 -14q-35 0 -67 23.5t-32 72.5z" />
<glyph unicode="&#xd2;" horiz-adv-x="1540" d="M94 707q0 160 55.5 291.5t147.5 226t215 146.5t258 52t258 -52t215 -146.5t147.5 -226.5t55.5 -291q0 -160 -55.5 -292t-147.5 -226.5t-215 -146.5t-258 -52t-258 52t-215 146.5t-147.5 226.5t-55.5 292zM375 707q0 -109 30.5 -198t85 -152.5t126 -97.5t153.5 -34 q80 0 152.5 34t126 97.5t85 152.5t31.5 198t-31.5 197.5t-85 152t-126 98.5t-152.5 35q-82 0 -153.5 -35t-126 -98.5t-85 -152.5t-30.5 -197zM516 1743q0 41 31 70.5t78 29.5q16 0 33.5 -4t33.5 -14l215 -125q41 -25 58.5 -53.5t17.5 -57.5q0 -41 -30.5 -70.5t-78.5 -29.5 q-16 0 -33.5 4t-33.5 14l-215 125q-41 23 -58.5 52.5t-17.5 58.5z" />
<glyph unicode="&#xd3;" horiz-adv-x="1540" d="M94 707q0 160 55.5 291.5t147.5 226t215 146.5t258 52t258 -52t215 -146.5t147.5 -226.5t55.5 -291q0 -160 -55.5 -292t-147.5 -226.5t-215 -146.5t-258 -52t-258 52t-215 146.5t-147.5 226.5t-55.5 292zM375 707q0 -109 30.5 -198t85 -152.5t126 -97.5t153.5 -34 q80 0 152.5 34t126 97.5t85 152.5t31.5 198t-31.5 197.5t-85 152t-126 98.5t-152.5 35q-82 0 -153.5 -35t-126 -98.5t-85 -152.5t-30.5 -197zM557 1589q0 29 17.5 58.5t58.5 52.5l215 125q16 10 33.5 14t33.5 4q47 0 78 -29.5t31 -70.5q0 -29 -17.5 -57.5t-58.5 -53.5 l-215 -125q-16 -10 -33.5 -14t-33.5 -4q-47 0 -78 29.5t-31 70.5z" />
<glyph unicode="&#xd4;" horiz-adv-x="1540" d="M94 707q0 160 55.5 291.5t147.5 226t215 146.5t258 52t258 -52t215 -146.5t147.5 -226.5t55.5 -291q0 -160 -55.5 -292t-147.5 -226.5t-215 -146.5t-258 -52t-258 52t-215 146.5t-147.5 226.5t-55.5 292zM375 707q0 -109 30.5 -198t85 -152.5t126 -97.5t153.5 -34 q80 0 152.5 34t126 97.5t85 152.5t31.5 198t-31.5 197.5t-85 152t-126 98.5t-152.5 35q-82 0 -153.5 -35t-126 -98.5t-85 -152.5t-30.5 -197zM479 1581q0 18 9.5 41t41.5 51l144 129q43 41 96 41t96 -41l144 -129q33 -29 42 -51.5t9 -40.5q0 -41 -27.5 -70.5t-68.5 -29.5 q-43 0 -80 35l-115 106l-115 -106q-37 -35 -80 -35q-41 0 -68.5 29.5t-27.5 70.5z" />
<glyph unicode="&#xd5;" horiz-adv-x="1540" d="M94 707q0 160 55.5 291.5t147.5 226t215 146.5t258 52t258 -52t215 -146.5t147.5 -226.5t55.5 -291q0 -160 -55.5 -292t-147.5 -226.5t-215 -146.5t-258 -52t-258 52t-215 146.5t-147.5 226.5t-55.5 292zM375 707q0 -109 30.5 -198t85 -152.5t126 -97.5t153.5 -34 q80 0 152.5 34t126 97.5t85 152.5t31.5 198t-31.5 197.5t-85 152t-126 98.5t-152.5 35q-82 0 -153.5 -35t-126 -98.5t-85 -152.5t-30.5 -197zM444 1624q0 25 10.5 56.5t34 61.5t61.5 50t91 20q61 0 107 -23t81 -48q14 -10 21.5 -13.5t11.5 -3.5q16 0 27 19l6 10 q14 23 35.5 37t52.5 14q35 0 66.5 -23.5t31.5 -72.5q0 -25 -10 -56.5t-33.5 -61t-61.5 -50t-91 -20.5q-61 0 -107.5 23.5t-81.5 47.5q-14 10 -21 13.5t-11 3.5q-16 0 -27 -19l-6 -10q-14 -23 -36 -37t-52 -14q-35 0 -67 23.5t-32 72.5z" />
<glyph unicode="&#xd6;" horiz-adv-x="1540" d="M94 707q0 160 55.5 291.5t147.5 226t215 146.5t258 52t258 -52t215 -146.5t147.5 -226.5t55.5 -291q0 -160 -55.5 -292t-147.5 -226.5t-215 -146.5t-258 -52t-258 52t-215 146.5t-147.5 226.5t-55.5 292zM375 707q0 -109 30.5 -198t85 -152.5t126 -97.5t153.5 -34 q80 0 152.5 34t126 97.5t85 152.5t31.5 198t-31.5 197.5t-85 152t-126 98.5t-152.5 35q-82 0 -153.5 -35t-126 -98.5t-85 -152.5t-30.5 -197zM444 1665q0 53 37 90t90 37t90 -37t37 -90t-36.5 -90t-90.5 -37q-53 0 -90 37t-37 90zM840 1665q0 53 36.5 90t90.5 37 q53 0 90 -37t37 -90t-37 -90t-90 -37t-90 37t-37 90z" />
<glyph unicode="&#xd7;" horiz-adv-x="1196" d="M219 250q0 43 35 78l186 192l-186 193q-35 35 -35 78q0 47 38 81.5t85 34.5t84 -39l172 -182l172 182q37 39 84 39t85 -34.5t38 -81.5q0 -43 -35 -78l-186 -193l186 -192q35 -35 35 -78q0 -47 -38 -82t-85 -35t-84 39l-172 182l-172 -182q-37 -39 -84 -39t-85 35t-38 82z " />
<glyph unicode="&#xd8;" horiz-adv-x="1540" d="M94 707q0 160 55.5 293t147.5 227t215 146t258 52q98 0 189.5 -27.5t170.5 -80.5l56 67q18 23 40.5 32t45.5 9q47 0 82 -33.5t35 -80.5q0 -41 -31 -78l-60 -72q68 -92 108 -205.5t40 -248.5q0 -160 -55.5 -292t-147.5 -226.5t-215 -146.5t-258 -52q-98 0 -187 26.5 t-167 75.5l-51 -61q-18 -23 -41 -32t-45 -9q-47 0 -82 33.5t-35 80.5q0 41 31 78l53 64q-72 92 -112 207.5t-40 253.5zM375 707q0 -139 49 -244l549 663q-45 31 -96.5 48.5t-106.5 17.5q-90 0 -164 -36t-125 -100.5t-78.5 -153.5t-27.5 -195zM573 283q91 -58 197 -58 q80 0 152.5 34t126 97.5t85 152.5t31.5 198q0 66 -12 125t-35 110z" />
<glyph unicode="&#xd9;" horiz-adv-x="1337" d="M135 530v768q0 41 35 79t98 38q59 0 96 -38t37 -79v-768q0 -80 22.5 -137t60.5 -95t86 -55.5t100 -17.5q51 0 99 17.5t85 55.5t59.5 95.5t22.5 136.5v766q0 49 39 84t94 35t94 -34.5t39 -84.5v-766q0 -131 -45 -232t-118.5 -170t-170 -103.5t-198.5 -34.5t-198.5 34.5 t-171.5 103.5t-120 170t-45 232zM414 1743q0 41 30.5 70.5t77.5 29.5q16 0 33.5 -4t34.5 -14l215 -125q41 -25 58.5 -53.5t17.5 -57.5q0 -41 -31 -70.5t-78 -29.5q-16 0 -33.5 4t-33.5 14l-216 125q-41 23 -58 52.5t-17 58.5z" />
<glyph unicode="&#xda;" horiz-adv-x="1337" d="M135 530v768q0 41 35 79t98 38q59 0 96 -38t37 -79v-768q0 -80 22.5 -137t60.5 -95t86 -55.5t100 -17.5q51 0 99 17.5t85 55.5t59.5 95.5t22.5 136.5v766q0 49 39 84t94 35t94 -34.5t39 -84.5v-766q0 -131 -45 -232t-118.5 -170t-170 -103.5t-198.5 -34.5t-198.5 34.5 t-171.5 103.5t-120 170t-45 232zM455 1589q0 29 17 58.5t58 52.5l215 125q16 10 34 14t34 4q47 0 78 -29.5t31 -70.5q0 -29 -17.5 -57.5t-58.5 -53.5l-215 -125q-16 -10 -33.5 -14t-34.5 -4q-47 0 -77.5 29.5t-30.5 70.5z" />
<glyph unicode="&#xdb;" horiz-adv-x="1337" d="M135 530v768q0 41 35 79t98 38q59 0 96 -38t37 -79v-768q0 -80 22.5 -137t60.5 -95t86 -55.5t100 -17.5q51 0 99 17.5t85 55.5t59.5 95.5t22.5 136.5v766q0 49 39 84t94 35t94 -34.5t39 -84.5v-766q0 -131 -45 -232t-118.5 -170t-170 -103.5t-198.5 -34.5t-198.5 34.5 t-171.5 103.5t-120 170t-45 232zM377 1581q0 18 9 41t42 51l143 129q43 41 97 41q53 0 96 -41l143 -129q33 -29 42 -51.5t9 -40.5q0 -41 -27.5 -70.5t-68.5 -29.5q-43 0 -80 35l-114 106l-115 -106q-37 -35 -80 -35q-41 0 -68.5 29.5t-27.5 70.5z" />
<glyph unicode="&#xdc;" horiz-adv-x="1337" d="M135 530v768q0 41 35 79t98 38q59 0 96 -38t37 -79v-768q0 -80 22.5 -137t60.5 -95t86 -55.5t100 -17.5q51 0 99 17.5t85 55.5t59.5 95.5t22.5 136.5v766q0 49 39 84t94 35t94 -34.5t39 -84.5v-766q0 -131 -45 -232t-118.5 -170t-170 -103.5t-198.5 -34.5t-198.5 34.5 t-171.5 103.5t-120 170t-45 232zM344 1665q0 53 37 90t90 37t90 -37t37 -90t-37 -90t-90 -37t-90 37t-37 90zM739 1665q0 53 37 90t90 37t90 -37t37 -90t-36.5 -90t-90.5 -37q-53 0 -90 37t-37 90z" />
<glyph unicode="&#xdd;" horiz-adv-x="1232" d="M37 1292q0 20 8 42t24.5 40.5t41 30.5t57.5 12q29 0 64.5 -14t56.5 -47l37 -58q66 -100 137.5 -220t157.5 -238q31 43 67.5 100t74.5 118.5t74.5 121t65.5 106.5l41 66q23 39 52.5 52t58.5 13q33 0 59.5 -12t45 -30.5t27.5 -40t9 -42.5q0 -18 -7 -35.5t-24 -46.5 q-82 -127 -159 -243q-33 -49 -69 -103.5t-69.5 -105.5t-64.5 -97.5l-55 -82.5v-465q0 -49 -39 -83t-95 -34q-55 0 -94 33.5t-39 83.5v465q-53 80 -114.5 171t-120 179t-107.5 162.5t-76 117.5q-16 31 -21 48.5t-5 35.5zM461 1589q0 29 17.5 58.5t58.5 52.5l215 125 q16 10 33.5 14t33.5 4q47 0 78 -29.5t31 -70.5q0 -29 -17.5 -57.5t-58.5 -53.5l-215 -125q-16 -10 -33.5 -14t-34.5 -4q-47 0 -77.5 29.5t-30.5 70.5z" />
<glyph unicode="&#xde;" horiz-adv-x="1105" d="M135 111v1189q0 49 39 82t94 33t94 -32.5t39 -82.5v-155h115q53 0 93 -2t72 -7.5t59.5 -12.5t56.5 -17q63 -25 111 -67t81 -94t50.5 -111.5t17.5 -120.5t-17.5 -123t-51.5 -116t-81 -98t-108 -71q-57 -25 -116.5 -36t-156.5 -11h-125v-147q0 -49 -38.5 -82t-94.5 -33 q-55 0 -94 32.5t-39 82.5zM401 494h181q49 0 86 18t62.5 48t37.5 69t12 80q0 39 -12 75.5t-36.5 64.5t-61.5 44t-86 16h-183v-415z" />
<glyph unicode="&#xdf;" horiz-adv-x="1171" d="M123 106v889q0 109 36 197t99.5 150.5t146 96.5t179.5 34q80 0 156.5 -26t136 -75t95.5 -122.5t36 -170.5q0 -92 -39 -170t-117 -135q123 -53 184.5 -149.5t61.5 -208.5q0 -90 -35 -167t-94.5 -133.5t-136 -88t-160.5 -31.5q-92 0 -149.5 29.5t-57.5 95.5q0 41 28.5 79 t75.5 38q14 0 26.5 -2.5l22.5 -4.5t21 -4t27 -2q78 0 121.5 54.5t43.5 142.5q0 80 -44 142.5t-136 72.5l-16 2q-49 6 -76 41t-27 76q0 31 16.5 59.5t53.5 44.5l14 6q57 25 91 75t34 124q0 94 -49 136t-117 42q-106 0 -150 -71.5t-44 -180.5v-885q0 -47 -38 -78.5t-91 -31.5 t-91 31.5t-38 78.5z" />
<glyph unicode="&#xe0;" horiz-adv-x="1138" d="M61 520q0 92 29 186.5t85 171t138 125t189 48.5q78 0 143.5 -31t108.5 -80q0 14 7 33.5t22.5 36t40 29t61.5 12.5q53 0 92 -35t39 -82v-610q0 -35 7 -58.5t19 -40.5q12 -16 23.5 -36.5t11.5 -55.5q0 -59 -40 -98t-91 -39q-41 0 -85 19.5t-87 95.5q-43 -49 -118.5 -82 t-153.5 -33q-104 0 -185 45t-138.5 118.5t-87.5 168t-30 192.5zM328 520q0 -139 64.5 -217t156.5 -78q53 0 97 19.5t71 52.5q29 33 34 72t5 116v76q0 39 -1 66.5t-4 49t-11.5 39t-22.5 34.5q-27 33 -71 52t-97 19q-47 0 -88 -22.5t-71 -63.5t-46 -96t-16 -119zM332 1364 q0 41 30.5 70.5t77.5 29.5q16 0 34 -4t34 -14l215 -125q41 -25 58.5 -53.5t17.5 -57.5q0 -41 -31 -70.5t-78 -29.5q-16 0 -33.5 4t-33.5 14l-215 125q-41 23 -58.5 52.5t-17.5 58.5z" />
<glyph unicode="&#xe1;" horiz-adv-x="1138" d="M61 520q0 92 29 186.5t85 171t138 125t189 48.5q78 0 143.5 -31t108.5 -80q0 14 7 33.5t22.5 36t40 29t61.5 12.5q53 0 92 -35t39 -82v-610q0 -35 7 -58.5t19 -40.5q12 -16 23.5 -36.5t11.5 -55.5q0 -59 -40 -98t-91 -39q-41 0 -85 19.5t-87 95.5q-43 -49 -118.5 -82 t-153.5 -33q-104 0 -185 45t-138.5 118.5t-87.5 168t-30 192.5zM328 520q0 -139 64.5 -217t156.5 -78q53 0 97 19.5t71 52.5q29 33 34 72t5 116v76q0 39 -1 66.5t-4 49t-11.5 39t-22.5 34.5q-27 33 -71 52t-97 19q-47 0 -88 -22.5t-71 -63.5t-46 -96t-16 -119zM332 1219 q0 29 17.5 58.5t58.5 51.5l215 125q16 10 33.5 14.5t33.5 4.5q47 0 78 -30t31 -71q0 -29 -17.5 -57.5t-58.5 -52.5l-215 -125q-16 -10 -33.5 -14.5t-34.5 -4.5q-47 0 -77.5 30t-30.5 71z" />
<glyph unicode="&#xe2;" horiz-adv-x="1138" d="M61 520q0 92 29 186.5t85 171t138 125t189 48.5q78 0 143.5 -31t108.5 -80q0 14 7 33.5t22.5 36t40 29t61.5 12.5q53 0 92 -35t39 -82v-610q0 -35 7 -58.5t19 -40.5q12 -16 23.5 -36.5t11.5 -55.5q0 -59 -40 -98t-91 -39q-41 0 -85 19.5t-87 95.5q-43 -49 -118.5 -82 t-153.5 -33q-104 0 -185 45t-138.5 118.5t-87.5 168t-30 192.5zM274 1210q0 18 9.5 41t42.5 52l143 129q43 41 96 41t97 -41l143 -129q33 -29 42 -51.5t9 -41.5q0 -41 -27.5 -70.5t-68.5 -29.5q-43 0 -80 35l-115 106l-114 -106q-37 -35 -80 -35q-41 0 -69 29.5t-28 70.5z M328 520q0 -139 64.5 -217t156.5 -78q53 0 97 19.5t71 52.5q29 33 34 72t5 116v76q0 39 -1 66.5t-4 49t-11.5 39t-22.5 34.5q-27 33 -71 52t-97 19q-47 0 -88 -22.5t-71 -63.5t-46 -96t-16 -119z" />
<glyph unicode="&#xe3;" horiz-adv-x="1138" d="M61 520q0 92 29 186.5t85 171t138 125t189 48.5q78 0 143.5 -31t108.5 -80q0 14 7 33.5t22.5 36t40 29t61.5 12.5q53 0 92 -35t39 -82v-610q0 -35 7 -58.5t19 -40.5q12 -16 23.5 -36.5t11.5 -55.5q0 -59 -40 -98t-91 -39q-41 0 -85 19.5t-87 95.5q-43 -49 -118.5 -82 t-153.5 -33q-104 0 -185 45t-138.5 118.5t-87.5 168t-30 192.5zM242 1251q0 25 10 56.5t33.5 61.5t61.5 50.5t91 20.5q61 0 107.5 -23.5t81.5 -48.5q14 -10 21 -13t11 -3q16 0 27 18l6 10q14 23 36 37.5t52 14.5q35 0 67 -24t32 -73q0 -25 -10.5 -56.5t-34 -61t-61.5 -50 t-91 -20.5q-61 0 -107.5 23.5t-80.5 48.5q-14 10 -21.5 13t-11.5 3q-16 0 -27 -18l-6 -11q-14 -23 -35.5 -37t-52.5 -14q-35 0 -66.5 23.5t-31.5 72.5zM328 520q0 -139 64.5 -217t156.5 -78q53 0 97 19.5t71 52.5q29 33 34 72t5 116v76q0 39 -1 66.5t-4 49t-11.5 39 t-22.5 34.5q-27 33 -71 52t-97 19q-47 0 -88 -22.5t-71 -63.5t-46 -96t-16 -119z" />
<glyph unicode="&#xe4;" horiz-adv-x="1138" d="M61 520q0 92 29 186.5t85 171t138 125t189 48.5q78 0 143.5 -31t108.5 -80q0 14 7 33.5t22.5 36t40 29t61.5 12.5q53 0 92 -35t39 -82v-610q0 -35 7 -58.5t19 -40.5q12 -16 23.5 -36.5t11.5 -55.5q0 -59 -40 -98t-91 -39q-41 0 -85 19.5t-87 95.5q-43 -49 -118.5 -82 t-153.5 -33q-104 0 -185 45t-138.5 118.5t-87.5 168t-30 192.5zM242 1292q0 53 36.5 90t90.5 37q53 0 90 -36.5t37 -90.5q0 -53 -37 -90t-90 -37t-90 37t-37 90zM328 520q0 -139 64.5 -217t156.5 -78q53 0 97 19.5t71 52.5q29 33 34 72t5 116v76q0 39 -1 66.5t-4 49 t-11.5 39t-22.5 34.5q-27 33 -71 52t-97 19q-47 0 -88 -22.5t-71 -63.5t-46 -96t-16 -119zM637 1292q0 53 37 90t90 37t90 -36.5t37 -90.5q0 -53 -37 -90t-90 -37t-90 37t-37 90z" />
<glyph unicode="&#xe5;" horiz-adv-x="1138" d="M61 520q0 92 29 186.5t85 171t138 125t189 48.5q78 0 143.5 -31t108.5 -80q0 14 7 33.5t22.5 36t40 29t61.5 12.5q53 0 92 -35t39 -82v-610q0 -35 7 -58.5t19 -40.5q12 -16 23.5 -36.5t11.5 -55.5q0 -59 -40 -98t-91 -39q-41 0 -85 19.5t-87 95.5q-43 -49 -118.5 -82 t-153.5 -33q-104 0 -185 45t-138.5 118.5t-87.5 168t-30 192.5zM328 520q0 -139 64.5 -217t156.5 -78q53 0 97 19.5t71 52.5q29 33 34 72t5 116v76q0 39 -1 66.5t-4 49t-11.5 39t-22.5 34.5q-27 33 -71 52t-97 19q-47 0 -88 -22.5t-71 -63.5t-46 -96t-16 -119zM391 1292 q0 37 14.5 70t39 57.5t57.5 39t69 14.5q37 0 70 -14.5t57.5 -39t39 -57.5t14.5 -70t-14.5 -69.5t-39 -58t-57.5 -40t-70 -14.5t-69.5 14.5t-57 40t-39 58t-14.5 69.5zM502 1292q0 -33 18.5 -54t50.5 -21q31 0 49.5 21.5t18.5 53.5q0 29 -18.5 50.5t-49.5 21.5 q-33 0 -51 -21.5t-18 -50.5z" />
<glyph unicode="&#xe6;" horiz-adv-x="1576" d="M59 287q0 96 47.5 160.5t124 103.5t175 57.5t202.5 22.5v43q0 49 -12 79.5t-30.5 47t-39 21.5t-39.5 5q-33 0 -66.5 -11t-68.5 -28l-20 -10q-23 -10 -55.5 -27.5t-69.5 -17.5q-47 0 -78 33t-31 80q0 31 15.5 59.5t54.5 55.5q59 41 143 65.5t176 24.5q209 0 293 -129 q63 59 142 94t172 35q88 0 164.5 -37t134 -98.5t90.5 -142.5t33 -169q0 -76 -45.5 -118t-106.5 -42h-514q16 -104 74.5 -167.5t165.5 -63.5q43 0 87 15.5t83 60.5q29 33 51 44t51 11q49 0 82 -29.5t33 -76.5q0 -45 -34 -89.5t-89.5 -79t-126 -56t-144.5 -21.5 q-195 0 -321 110q-53 -41 -141.5 -75.5t-198.5 -34.5q-84 0 -151.5 22.5t-114.5 62.5t-72 93t-25 117zM309 293q0 -45 31.5 -76t99.5 -31q37 0 94.5 18.5t114.5 57.5q-18 41 -29.5 85t-15.5 95q-162 0 -228.5 -44t-66.5 -105zM854 633h381q12 0 15 6t3 12q0 20 -9 51 t-30.5 60t-57.5 49t-91 20q-41 0 -77 -16t-63.5 -43t-46 -63.5t-24.5 -75.5z" />
<glyph unicode="&#xe7;" horiz-adv-x="1003" d="M61 520q0 109 37 205t103.5 169t159 115t200.5 42q76 0 144.5 -22.5t121 -59.5t84 -85t31.5 -102q0 -57 -39 -91t-80 -34t-64.5 18.5t-47.5 53.5q-27 39 -65 65.5t-93 26.5q-47 0 -88 -22.5t-72 -62.5t-48 -95t-17 -123t17 -122t48 -93t72 -60.5t88 -21.5q45 0 86 19.5 t78 68.5q29 35 52.5 48.5t51.5 13.5q51 0 85 -35t34 -82t-25.5 -90t-85.5 -88q-49 -37 -116.5 -59.5t-145.5 -24.5q-4 -10 -7 -21.5t-7 -23.5q78 -6 129 -44t51 -124q0 -68 -49 -118t-139 -50q-45 0 -79 8t-60 21q-27 12 -40.5 31.5t-13.5 37.5q0 23 15.5 43.5t46.5 20.5 q8 0 15 -2t24 -11q16 -8 36.5 -15t42.5 -7q18 0 33 10t15 31q0 12 -9.5 24.5t-25.5 16.5l-88 12q-35 4 -49.5 21.5t-14.5 40.5q0 14 4 27t13 34l18 53q-82 20 -149.5 67.5t-115.5 114t-75 150.5t-27 180z" />
<glyph unicode="&#xe8;" horiz-adv-x="1075" d="M61 512q0 117 38 215t104.5 170t154.5 113t191 41q102 0 187 -37t146.5 -99.5t96.5 -144.5t35 -170q0 -76 -46 -117t-110 -41h-536q16 -104 79.5 -166.5t173.5 -62.5q45 0 88.5 16.5t84.5 59.5q51 55 112 55q45 0 78 -29.5t33 -76.5q0 -45 -34 -89.5t-91.5 -80t-130 -57 t-148.5 -21.5q-111 0 -204 39t-159.5 108.5t-104.5 165.5t-38 209zM305 1364q0 41 31 70.5t78 29.5q16 0 33.5 -4t33.5 -14l215 -125q41 -25 58.5 -53.5t17.5 -57.5q0 -41 -30.5 -70.5t-77.5 -29.5q-16 0 -34 4t-34 14l-215 125q-41 23 -58.5 52.5t-17.5 58.5zM326 635h399 q14 0 17 6t3 12q0 20 -12 51t-36.5 60t-61.5 49.5t-86 20.5q-90 0 -150.5 -59.5t-72.5 -139.5z" />
<glyph unicode="&#xe9;" horiz-adv-x="1075" d="M61 512q0 117 38 215t104.5 170t154.5 113t191 41q102 0 187 -37t146.5 -99.5t96.5 -144.5t35 -170q0 -76 -46 -117t-110 -41h-536q16 -104 79.5 -166.5t173.5 -62.5q45 0 88.5 16.5t84.5 59.5q51 55 112 55q45 0 78 -29.5t33 -76.5q0 -45 -34 -89.5t-91.5 -80t-130 -57 t-148.5 -21.5q-111 0 -204 39t-159.5 108.5t-104.5 165.5t-38 209zM305 1219q0 29 17.5 58.5t58.5 51.5l215 125q16 10 33.5 14.5t34.5 4.5q47 0 77.5 -30t30.5 -71q0 -29 -17.5 -57.5t-58.5 -52.5l-215 -125q-16 -10 -33.5 -14.5t-33.5 -4.5q-47 0 -78 30t-31 71zM326 635 h399q14 0 17 6t3 12q0 20 -12 51t-36.5 60t-61.5 49.5t-86 20.5q-90 0 -150.5 -59.5t-72.5 -139.5z" />
<glyph unicode="&#xea;" horiz-adv-x="1075" d="M61 512q0 117 38 215t104.5 170t154.5 113t191 41q102 0 187 -37t146.5 -99.5t96.5 -144.5t35 -170q0 -76 -46 -117t-110 -41h-536q16 -104 79.5 -166.5t173.5 -62.5q45 0 88.5 16.5t84.5 59.5q51 55 112 55q45 0 78 -29.5t33 -76.5q0 -45 -34 -89.5t-91.5 -80t-130 -57 t-148.5 -21.5q-111 0 -204 39t-159.5 108.5t-104.5 165.5t-38 209zM248 1210q0 18 9 41t42 52l143 129q43 41 97 41q53 0 96 -41l143 -129q33 -29 42 -51.5t9 -41.5q0 -41 -27.5 -70.5t-68.5 -29.5q-43 0 -80 35l-114 106l-115 -106q-37 -35 -80 -35q-41 0 -68.5 29.5 t-27.5 70.5zM326 635h399q14 0 17 6t3 12q0 20 -12 51t-36.5 60t-61.5 49.5t-86 20.5q-90 0 -150.5 -59.5t-72.5 -139.5z" />
<glyph unicode="&#xeb;" horiz-adv-x="1075" d="M61 512q0 117 38 215t104.5 170t154.5 113t191 41q102 0 187 -37t146.5 -99.5t96.5 -144.5t35 -170q0 -76 -46 -117t-110 -41h-536q16 -104 79.5 -166.5t173.5 -62.5q45 0 88.5 16.5t84.5 59.5q51 55 112 55q45 0 78 -29.5t33 -76.5q0 -45 -34 -89.5t-91.5 -80t-130 -57 t-148.5 -21.5q-111 0 -204 39t-159.5 108.5t-104.5 165.5t-38 209zM213 1292q0 53 37 90t90 37t90 -36.5t37 -90.5q0 -53 -37 -90t-90 -37t-90 37t-37 90zM326 635h399q14 0 17 6t3 12q0 20 -12 51t-36.5 60t-61.5 49.5t-86 20.5q-90 0 -150.5 -59.5t-72.5 -139.5zM608 1292 q0 53 37 90t90 37t90 -36.5t37 -90.5q0 -53 -37 -90t-90 -37t-90 37t-37 90z" />
<glyph unicode="&#xec;" horiz-adv-x="503" d="M18 1364q0 41 31 70.5t78 29.5q16 0 33.5 -4t34.5 -14l215 -125q41 -25 58 -53.5t17 -57.5q0 -41 -30.5 -70.5t-77.5 -29.5q-16 0 -33.5 4t-34.5 14l-215 125q-41 23 -58.5 52.5t-17.5 58.5zM123 106v834q0 47 38 79t91 32t91 -32t38 -79v-834q0 -49 -38 -79.5t-91 -30.5 t-91 30.5t-38 79.5z" />
<glyph unicode="&#xed;" horiz-adv-x="503" d="M39 1219q0 29 17.5 58.5t58.5 51.5l215 125q16 10 33.5 14.5t33.5 4.5q47 0 78 -30t31 -71q0 -29 -17.5 -57.5t-58.5 -52.5l-215 -125q-16 -10 -33.5 -14.5t-34.5 -4.5q-47 0 -77.5 30t-30.5 71zM123 106v834q0 47 38 79t91 32t91 -32t38 -79v-834q0 -49 -38 -79.5 t-91 -30.5t-91 30.5t-38 79.5z" />
<glyph unicode="&#xee;" horiz-adv-x="503" d="M-39 1210q0 18 9.5 41t41.5 52l144 129q43 41 96 41t96 -41l144 -129q33 -29 42 -51.5t9 -41.5q0 -41 -28 -70.5t-69 -29.5q-43 0 -79 35l-115 106l-115 -106q-37 -35 -80 -35q-41 0 -68.5 29.5t-27.5 70.5zM123 106v834q0 47 38 79t91 32t91 -32t38 -79v-834 q0 -49 -38 -79.5t-91 -30.5t-91 30.5t-38 79.5z" />
<glyph unicode="&#xef;" horiz-adv-x="503" d="M-72 1292q0 53 37 90t90 37t90 -36.5t37 -90.5q0 -53 -36.5 -90t-90.5 -37q-53 0 -90 37t-37 90zM123 106v834q0 47 38 79t91 32t91 -32t38 -79v-834q0 -49 -38 -79.5t-91 -30.5t-91 30.5t-38 79.5zM324 1292q0 53 36.5 90t90.5 37q53 0 90 -36.5t37 -90.5q0 -53 -37 -90 t-90 -37t-90 37t-37 90z" />
<glyph unicode="&#xf0;" horiz-adv-x="1112" d="M61 510q0 113 35 208t96.5 163.5t145.5 106.5t182 38q47 0 88 -8t76 -25q-23 39 -57.5 80t-57.5 64l-151 -78q-27 -14 -60 -15q-43 0 -76.5 28t-33.5 77q0 29 14 51.5t47 38.5l43 21l-63 8q-45 6 -73 35.5t-28 66.5q0 41 32 72t83 31q72 0 147.5 -21.5t147.5 -60.5 l121 63q37 18 67 19q47 0 78 -31t31 -72q0 -25 -14.5 -48.5t-44.5 -39.5l-50 -27q129 -139 197 -317t68 -371q0 -117 -27 -206t-69 -152.5t-95 -106.5t-108.5 -67.5t-106.5 -34.5t-88 -10q-123 0 -215 47t-154.5 120.5t-94.5 167t-32 185.5zM328 510q0 -61 13 -117.5 t41 -99.5t72 -68.5t103 -25.5q37 0 77 14t73.5 52t56 104.5t22.5 169.5q0 57 -12 108t-39.5 90t-70.5 61.5t-105 22.5q-59 0 -102 -25.5t-72 -68.5t-43 -99.5t-14 -117.5z" />
<glyph unicode="&#xf1;" horiz-adv-x="1110" d="M123 106v834q0 49 39 80t92 31q47 0 88 -29t41 -82q41 43 109.5 77t160.5 34q147 0 240.5 -104.5t93.5 -289.5v-551q0 -49 -38 -79.5t-91 -30.5t-92 30.5t-39 79.5v535q0 27 -7 58.5t-24.5 58t-46 45t-71.5 18.5q-90 0 -142.5 -57t-52.5 -150v-508q0 -49 -39 -79.5 t-92 -30.5t-91 30.5t-38 79.5zM231 1251q0 25 10.5 56.5t34 61.5t61.5 50.5t91 20.5q61 0 107 -23.5t81 -48.5q14 -10 21.5 -13t11.5 -3q16 0 27 18l6 10q14 23 35.5 37.5t52.5 14.5q35 0 66.5 -24t31.5 -73q0 -25 -10 -56.5t-33.5 -61t-61.5 -50t-91 -20.5 q-61 0 -107.5 23.5t-81.5 48.5q-14 10 -21 13t-11 3q-16 0 -27 -18l-6 -11q-14 -23 -36 -37t-52 -14q-35 0 -67 23.5t-32 72.5z" />
<glyph unicode="&#xf2;" horiz-adv-x="1122" d="M61 520q0 117 40 214t107.5 168t159 110t193.5 39t193.5 -39t159 -110t107.5 -168t40 -214t-40 -214t-108.5 -167.5t-160 -109.5t-191.5 -39t-191 39t-160 109.5t-109 167.5t-40 214zM307 1364q0 41 31 70.5t78 29.5q16 0 33.5 -4t33.5 -14l215 -125q41 -25 58.5 -53.5 t17.5 -57.5q0 -41 -30.5 -70.5t-77.5 -29.5q-16 0 -34 4t-34 14l-215 125q-41 23 -58.5 52.5t-17.5 58.5zM326 520q0 -72 18 -127t51 -94t75 -59.5t91 -20.5t91 20.5t75 59.5t51.5 94.5t18.5 126.5q0 70 -18.5 126t-51.5 95t-75 59.5t-91 20.5t-91 -20.5t-75 -59.5t-51 -95 t-18 -126z" />
<glyph unicode="&#xf3;" horiz-adv-x="1122" d="M61 520q0 117 40 214t107.5 168t159 110t193.5 39t193.5 -39t159 -110t107.5 -168t40 -214t-40 -214t-108.5 -167.5t-160 -109.5t-191.5 -39t-191 39t-160 109.5t-109 167.5t-40 214zM326 520q0 -72 18 -127t51 -94t75 -59.5t91 -20.5t91 20.5t75 59.5t51.5 94.5 t18.5 126.5q0 70 -18.5 126t-51.5 95t-75 59.5t-91 20.5t-91 -20.5t-75 -59.5t-51 -95t-18 -126zM348 1219q0 29 17.5 58.5t58.5 51.5l215 125q16 10 33.5 14.5t34.5 4.5q47 0 77.5 -30t30.5 -71q0 -29 -17.5 -57.5t-58.5 -52.5l-215 -125q-16 -10 -33.5 -14.5t-33.5 -4.5 q-47 0 -78 30t-31 71z" />
<glyph unicode="&#xf4;" horiz-adv-x="1122" d="M61 520q0 117 40 214t107.5 168t159 110t193.5 39t193.5 -39t159 -110t107.5 -168t40 -214t-40 -214t-108.5 -167.5t-160 -109.5t-191.5 -39t-191 39t-160 109.5t-109 167.5t-40 214zM270 1210q0 18 9.5 41t42.5 52l143 129q43 41 96 41t96 -41l144 -129q33 -29 42 -51.5 t9 -41.5q0 -41 -27.5 -70.5t-68.5 -29.5q-43 0 -80 35l-115 106l-115 -106q-37 -35 -79 -35q-41 0 -69 29.5t-28 70.5zM326 520q0 -72 18 -127t51 -94t75 -59.5t91 -20.5t91 20.5t75 59.5t51.5 94.5t18.5 126.5q0 70 -18.5 126t-51.5 95t-75 59.5t-91 20.5t-91 -20.5 t-75 -59.5t-51 -95t-18 -126z" />
<glyph unicode="&#xf5;" horiz-adv-x="1122" d="M61 520q0 117 40 214t107.5 168t159 110t193.5 39t193.5 -39t159 -110t107.5 -168t40 -214t-40 -214t-108.5 -167.5t-160 -109.5t-191.5 -39t-191 39t-160 109.5t-109 167.5t-40 214zM238 1251q0 25 10 56.5t33.5 61.5t61.5 50.5t91 20.5q61 0 107.5 -23.5t81.5 -48.5 q14 -10 21 -13t11 -3q16 0 27 18l6 10q14 23 35.5 37.5t52.5 14.5q35 0 66.5 -24t31.5 -73q0 -25 -10 -56.5t-33.5 -61t-61.5 -50t-91 -20.5q-61 0 -107.5 23.5t-81.5 48.5q-14 10 -21 13t-11 3q-16 0 -27 -18l-6 -11q-14 -23 -35.5 -37t-52.5 -14q-35 0 -66.5 23.5 t-31.5 72.5zM326 520q0 -72 18 -127t51 -94t75 -59.5t91 -20.5t91 20.5t75 59.5t51.5 94.5t18.5 126.5q0 70 -18.5 126t-51.5 95t-75 59.5t-91 20.5t-91 -20.5t-75 -59.5t-51 -95t-18 -126z" />
<glyph unicode="&#xf6;" horiz-adv-x="1122" d="M61 520q0 117 40 214t107.5 168t159 110t193.5 39t193.5 -39t159 -110t107.5 -168t40 -214t-40 -214t-108.5 -167.5t-160 -109.5t-191.5 -39t-191 39t-160 109.5t-109 167.5t-40 214zM238 1292q0 53 36.5 90t90.5 37q53 0 90 -36.5t37 -90.5q0 -53 -37 -90t-90 -37 t-90 37t-37 90zM326 520q0 -72 18 -127t51 -94t75 -59.5t91 -20.5t91 20.5t75 59.5t51.5 94.5t18.5 126.5q0 70 -18.5 126t-51.5 95t-75 59.5t-91 20.5t-91 -20.5t-75 -59.5t-51 -95t-18 -126zM633 1292q0 53 37 90t90 37t90 -36.5t37 -90.5q0 -53 -37 -90t-90 -37t-90 37 t-37 90z" />
<glyph unicode="&#xf7;" d="M117 520q0 43 28.5 79t87.5 36h730q59 0 87.5 -36t28.5 -79t-28.5 -78.5t-87.5 -35.5h-730q-59 0 -87.5 35.5t-28.5 78.5zM440 147q0 61 43 104.5t105 43.5q61 0 104 -43t43 -105q0 -61 -43 -104t-104 -43t-104.5 43t-43.5 104zM440 885q0 61 43 104t105 43q61 0 104 -43 t43 -104t-43 -104.5t-104 -43.5t-104.5 43.5t-43.5 104.5z" />
<glyph unicode="&#xf8;" horiz-adv-x="1122" d="M61 520q0 117 40 214t107.5 168t159 110t193.5 39q66 0 125 -16.5t113 -45.5l16 19q18 23 41 33t45 10q47 0 82 -35t35 -82q0 -41 -31 -78l-18 -22q43 -66 67.5 -144t24.5 -170q0 -117 -40 -214t-108.5 -167.5t-160 -109.5t-191.5 -39q-129 0 -239 63l-19 -22 q-18 -23 -40.5 -32t-45.5 -9q-47 0 -82 33.5t-35 80.5q0 41 31 78l23 27q-43 63 -68 141t-25 170zM311 520q0 -59 13 -108l335 405q-49 23 -98 23q-51 0 -97 -21.5t-80 -62.5t-53.5 -100.5t-19.5 -135.5zM459 223q49 -22 102 -22q51 0 97.5 21.5t80 63.5t53 101t19.5 133 q0 31 -4 58.5t-10 52.5z" />
<glyph unicode="&#xf9;" horiz-adv-x="1110" d="M123 389v551q0 49 38 80t91 31t92 -31t39 -80v-534q0 -27 7 -59t24.5 -58.5t46 -45t71.5 -18.5q90 0 142.5 57.5t52.5 149.5v508q0 49 39 80t92 31t91 -31t38 -80v-834q0 -49 -39 -79.5t-92 -30.5q-47 0 -88 28.5t-41 81.5q-41 -43 -109.5 -76.5t-160.5 -33.5 q-147 0 -240.5 104.5t-93.5 288.5zM287 1364q0 41 30.5 70.5t77.5 29.5q16 0 33.5 -4t34.5 -14l215 -125q41 -25 58.5 -53.5t17.5 -57.5q0 -41 -31 -70.5t-78 -29.5q-16 0 -33.5 4t-33.5 14l-216 125q-41 23 -58 52.5t-17 58.5z" />
<glyph unicode="&#xfa;" horiz-adv-x="1110" d="M123 389v551q0 49 38 80t91 31t92 -31t39 -80v-534q0 -27 7 -59t24.5 -58.5t46 -45t71.5 -18.5q90 0 142.5 57.5t52.5 149.5v508q0 49 39 80t92 31t91 -31t38 -80v-834q0 -49 -39 -79.5t-92 -30.5q-47 0 -88 28.5t-41 81.5q-41 -43 -109.5 -76.5t-160.5 -33.5 q-147 0 -240.5 104.5t-93.5 288.5zM342 1219q0 29 17.5 58.5t58.5 51.5l215 125q16 10 33.5 14.5t33.5 4.5q47 0 78 -30t31 -71q0 -29 -17.5 -57.5t-58.5 -52.5l-215 -125q-16 -10 -33.5 -14.5t-33.5 -4.5q-47 0 -78 30t-31 71z" />
<glyph unicode="&#xfb;" horiz-adv-x="1110" d="M123 389v551q0 49 38 80t91 31t92 -31t39 -80v-534q0 -27 7 -59t24.5 -58.5t46 -45t71.5 -18.5q90 0 142.5 57.5t52.5 149.5v508q0 49 39 80t92 31t91 -31t38 -80v-834q0 -49 -39 -79.5t-92 -30.5q-47 0 -88 28.5t-41 81.5q-41 -43 -109.5 -76.5t-160.5 -33.5 q-147 0 -240.5 104.5t-93.5 288.5zM264 1210q0 18 9.5 41t41.5 52l144 129q43 41 96 41t96 -41l144 -129q33 -29 42 -51.5t9 -41.5q0 -41 -27.5 -70.5t-68.5 -29.5q-43 0 -80 35l-115 106l-115 -106q-37 -35 -80 -35q-41 0 -68.5 29.5t-27.5 70.5z" />
<glyph unicode="&#xfc;" horiz-adv-x="1110" d="M123 389v551q0 49 38 80t91 31t92 -31t39 -80v-534q0 -27 7 -59t24.5 -58.5t46 -45t71.5 -18.5q90 0 142.5 57.5t52.5 149.5v508q0 49 39 80t92 31t91 -31t38 -80v-834q0 -49 -39 -79.5t-92 -30.5q-47 0 -88 28.5t-41 81.5q-41 -43 -109.5 -76.5t-160.5 -33.5 q-147 0 -240.5 104.5t-93.5 288.5zM231 1292q0 53 37 90t90 37t90 -36.5t37 -90.5q0 -53 -36.5 -90t-90.5 -37q-53 0 -90 37t-37 90zM627 1292q0 53 36.5 90t90.5 37q53 0 90 -36.5t37 -90.5q0 -53 -37 -90t-90 -37t-90 37t-37 90z" />
<glyph unicode="&#xfd;" horiz-adv-x="1032" d="M43 934q0 53 41 85t92 32q35 0 66.5 -18.5t48.5 -55.5q59 -150 112.5 -301.5t118.5 -304.5q23 57 46.5 118.5t48 131t53 152.5t63.5 185q16 47 47 70t84 23q57 0 91 -36t34 -79q0 -16 -7 -46t-26 -81q-66 -176 -142.5 -363.5t-158.5 -361.5l-73 -154q-45 -92 -89 -153.5 t-88.5 -98t-88.5 -52t-89 -15.5q-61 0 -94 38t-33 79q0 33 20.5 63.5t69.5 52.5q27 12 48.5 25.5t40 33t37 47t40.5 68.5l31 58l-35 71q-78 158 -149.5 339.5t-141.5 373.5q-8 23 -13 40.5t-5 33.5zM350 1219q0 29 17.5 58.5t58.5 51.5l215 125q16 10 33.5 14.5t34.5 4.5 q47 0 77.5 -30t30.5 -71q0 -29 -17.5 -57.5t-58.5 -52.5l-215 -125q-16 -10 -33.5 -14.5t-33.5 -4.5q-47 0 -78 30t-31 71z" />
<glyph unicode="&#xfe;" horiz-adv-x="1138" d="M123 -279v1641q2 47 40 79t93 32q53 0 91 -32t38 -79v-422q43 49 108.5 80t143.5 31q100 0 182 -42t139.5 -115t88 -168t30.5 -202q0 -94 -28.5 -188t-84 -170t-138.5 -123t-189 -47q-70 0 -138.5 26.5t-115.5 67.5v-369q0 -47 -38 -78.5t-93 -31.5q-53 0 -91 31.5 t-38 78.5zM383 485q0 -78 5 -116.5t34 -71.5q27 -33 71 -52.5t97 -19.5q100 0 160.5 80t60.5 219t-60.5 218t-160.5 79q-53 0 -97 -19.5t-71 -51.5q-14 -16 -22.5 -34t-11.5 -39.5t-4 -49t-1 -66.5v-76z" />
<glyph unicode="&#xff;" horiz-adv-x="1032" d="M43 934q0 53 41 85t92 32q35 0 66.5 -18.5t48.5 -55.5q59 -150 112.5 -301.5t118.5 -304.5q23 57 46.5 118.5t48 131t53 152.5t63.5 185q16 47 47 70t84 23q57 0 91 -36t34 -79q0 -16 -7 -46t-26 -81q-66 -176 -142.5 -363.5t-158.5 -361.5l-73 -154q-45 -92 -89 -153.5 t-88.5 -98t-88.5 -52t-89 -15.5q-61 0 -94 38t-33 79q0 33 20.5 63.5t69.5 52.5q27 12 48.5 25.5t40 33t37 47t40.5 68.5l31 58l-35 71q-78 158 -149.5 339.5t-141.5 373.5q-8 23 -13 40.5t-5 33.5zM197 1292q0 53 36.5 90t90.5 37q53 0 90 -36.5t37 -90.5q0 -53 -37 -90 t-90 -37t-90 37t-37 90zM592 1292q0 53 37 90t90 37t90 -36.5t37 -90.5q0 -53 -37 -90t-90 -37t-90 37t-37 90z" />
<glyph unicode="&#x152;" horiz-adv-x="1820" d="M94 707q0 135 48 261t143.5 223t237 155.5t329.5 58.5h760q61 0 92 -37t31 -82t-31 -81t-92 -36h-463v-342h410q63 0 93.5 -36.5t30.5 -79.5q0 -45 -31.5 -82t-92.5 -37h-410v-346h467q63 0 94 -37t31 -82t-31 -81t-94 -36h-764q-190 0 -332.5 58.5t-237 156t-141.5 222 t-47 260.5zM369 715q0 -94 29.5 -179t88 -149.5t145.5 -102.5t202 -38h51v923h-51q-121 0 -209 -36.5t-144.5 -98t-84 -144.5t-27.5 -175z" />
<glyph unicode="&#x153;" horiz-adv-x="1789" d="M61 520q0 117 40 214t107.5 167t159 109t193.5 39q111 0 205 -46.5t164 -142.5q55 90 152.5 139.5t207.5 49.5q98 0 181 -37t143.5 -99.5t94.5 -143.5t34 -169q0 -76 -46 -117t-110 -41h-536q16 -104 79.5 -166.5t174.5 -62.5q45 0 88 16.5t84 59.5q51 55 112 55 q45 0 78 -29.5t33 -76.5q0 -45 -34 -89.5t-91 -80t-130 -57t-149 -21.5q-129 0 -227 51t-162 141q-59 -98 -147 -145t-199 -47q-100 0 -191 39t-160 109.5t-109 167.5t-40 214zM326 520q0 -72 18 -127t50 -95t74 -60.5t89 -20.5t89 20.5t74 60.5t50 95.5t18 126.5 q0 70 -18 127.5t-50 97t-74 61t-89 21.5t-89 -21.5t-74 -61t-50 -97t-18 -127.5zM1055 635h399q14 0 17.5 6t3.5 12q0 20 -12.5 51t-37 60t-61.5 49.5t-86 20.5q-90 0 -150.5 -59.5t-72.5 -139.5z" />
<glyph unicode="&#x178;" horiz-adv-x="1232" d="M37 1292q0 20 8 42t24.5 40.5t41 30.5t57.5 12q29 0 64.5 -14t56.5 -47l37 -58q66 -100 137.5 -220t157.5 -238q31 43 67.5 100t74.5 118.5t74.5 121t65.5 106.5l41 66q23 39 52.5 52t58.5 13q33 0 59.5 -12t45 -30.5t27.5 -40t9 -42.5q0 -18 -7 -35.5t-24 -46.5 q-82 -127 -159 -243q-33 -49 -69 -103.5t-69.5 -105.5t-64.5 -97.5l-55 -82.5v-465q0 -49 -39 -83t-95 -34q-55 0 -94 33.5t-39 83.5v465q-53 80 -114.5 171t-120 179t-107.5 162.5t-76 117.5q-16 31 -21 48.5t-5 35.5zM291 1665q0 53 37 90t90 37t90 -37t37 -90t-37 -90 t-90 -37t-90 37t-37 90zM686 1665q0 53 37 90t90 37t90 -37t37 -90t-37 -90t-90 -37t-90 37t-37 90z" />
<glyph unicode="&#x2c6;" horiz-adv-x="1146" d="M283 1210q0 18 9 41t42 52l143 129q43 41 96 41t97 -41l143 -129q33 -29 42 -51.5t9 -41.5q0 -41 -27.5 -70.5t-68.5 -29.5q-43 0 -80 35l-115 106l-114 -106q-37 -35 -80 -35q-41 0 -68.5 29.5t-27.5 70.5z" />
<glyph unicode="&#x2dc;" horiz-adv-x="1146" d="M252 1251q0 25 10 56.5t33.5 61.5t61.5 50.5t92 20.5q61 0 107 -23.5t81 -48.5q14 -10 21.5 -13t11.5 -3q16 0 26 18l6 10q14 23 36 37.5t53 14.5q35 0 66.5 -24t31.5 -73q0 -25 -10.5 -56.5t-34 -61t-61.5 -50t-91 -20.5q-61 0 -107 23.5t-81 48.5q-14 10 -21.5 13 t-11.5 3q-16 0 -27 -18l-6 -11q-14 -23 -35.5 -37t-52.5 -14q-35 0 -66.5 23.5t-31.5 72.5z" />
<glyph unicode="&#x2000;" horiz-adv-x="921" />
<glyph unicode="&#x2001;" horiz-adv-x="1843" />
<glyph unicode="&#x2002;" horiz-adv-x="921" />
<glyph unicode="&#x2003;" horiz-adv-x="1843" />
<glyph unicode="&#x2004;" horiz-adv-x="614" />
<glyph unicode="&#x2005;" horiz-adv-x="460" />
<glyph unicode="&#x2006;" horiz-adv-x="307" />
<glyph unicode="&#x2007;" horiz-adv-x="307" />
<glyph unicode="&#x2008;" horiz-adv-x="230" />
<glyph unicode="&#x2009;" horiz-adv-x="368" />
<glyph unicode="&#x200a;" horiz-adv-x="102" />
<glyph unicode="&#x2010;" horiz-adv-x="692" d="M74 555q0 43 29.5 79t91.5 36h303q59 0 89.5 -36t30.5 -79t-30.5 -79t-89.5 -36h-303q-61 0 -91 36t-30 79z" />
<glyph unicode="&#x2011;" horiz-adv-x="692" d="M74 555q0 43 29.5 79t91.5 36h303q59 0 89.5 -36t30.5 -79t-30.5 -79t-89.5 -36h-303q-61 0 -91 36t-30 79z" />
<glyph unicode="&#x2012;" horiz-adv-x="692" d="M74 555q0 43 29.5 79t91.5 36h303q59 0 89.5 -36t30.5 -79t-30.5 -79t-89.5 -36h-303q-61 0 -91 36t-30 79z" />
<glyph unicode="&#x2013;" horiz-adv-x="1093" d="M61 520q0 43 30 79t91 36h729q59 0 90 -36t31 -79t-30.5 -78.5t-90.5 -35.5h-729q-61 0 -91 35.5t-30 78.5z" />
<glyph unicode="&#x2014;" horiz-adv-x="1544" d="M61 520q0 43 30 79t91 36h1180q59 0 90 -36t31 -79t-31 -78.5t-90 -35.5h-1180q-61 0 -91 35.5t-30 78.5z" />
<glyph unicode="&#x2018;" horiz-adv-x="446" d="M68 1106q0 41 6 84t16 82t23.5 72.5t27.5 58.5q23 35 48.5 49t50.5 14q43 0 73.5 -26.5t30.5 -67.5q0 -16 -6 -32.5t-16 -45.5q-10 -25 -20.5 -57.5t-16.5 -67.5q43 -10 68.5 -44t25.5 -81q0 -61 -40 -103t-101 -42q-51 0 -84 20.5t-52.5 52.5t-26.5 67.5t-7 66.5z" />
<glyph unicode="&#x2019;" horiz-adv-x="446" d="M68 1321q0 61 39.5 103t101.5 42q51 0 84 -20.5t52.5 -52t26.5 -67.5t7 -66q0 -41 -6 -84t-16.5 -82t-24 -73t-27.5 -58q-23 -35 -48.5 -49.5t-49.5 -14.5q-43 0 -74 26.5t-31 67.5q0 16 6.5 32.5t16.5 45.5q10 25 20.5 57.5t16.5 67.5q-43 10 -68.5 44t-25.5 81z" />
<glyph unicode="&#x201a;" horiz-adv-x="475" d="M90 139q0 61 40 103.5t101 42.5q51 0 84 -20.5t52.5 -52.5t26.5 -67.5t7 -66.5q0 -41 -6 -84t-16 -82t-23.5 -73t-27.5 -58q-23 -35 -48.5 -49.5t-50.5 -14.5q-43 0 -73.5 26t-30.5 62q0 20 5 37t13 37q12 33 18.5 50.5t10.5 35.5q8 31 8 39t-4 10t-14 6q-35 14 -53.5 46 t-18.5 73z" />
<glyph unicode="&#x201c;" horiz-adv-x="892" d="M88 1106q0 41 6 84t16.5 82t23.5 72.5t28 58.5q23 35 48.5 49t49.5 14q43 0 74 -26.5t31 -67.5q0 -16 -6.5 -32.5t-16.5 -45.5q-10 -25 -20.5 -57.5t-16.5 -67.5q43 -10 68.5 -44t25.5 -81q0 -61 -40 -103t-101 -42q-51 0 -84 20.5t-52.5 52.5t-26.5 67.5t-7 66.5z M494 1106q0 41 6 84t16 82t23.5 72.5t27.5 58.5q23 35 48.5 49t50.5 14q43 0 73.5 -26.5t30.5 -67.5q0 -16 -6 -32.5t-16 -45.5q-10 -25 -20.5 -57.5t-16.5 -67.5q43 -10 68.5 -44t25.5 -81q0 -61 -40 -103t-101 -42q-51 0 -84 20.5t-52.5 52.5t-26.5 67.5t-7 66.5z" />
<glyph unicode="&#x201d;" horiz-adv-x="892" d="M88 1321q0 61 40 103t101 42q51 0 84 -20.5t52.5 -52t26.5 -67.5t7 -66q0 -41 -6 -84t-16 -82t-23.5 -73t-27.5 -58q-23 -35 -48.5 -49.5t-50.5 -14.5q-43 0 -73.5 26.5t-30.5 67.5q0 16 6 32.5t16 45.5q10 25 20.5 57.5t16.5 67.5q-43 10 -68.5 44t-25.5 81zM494 1321 q0 61 39.5 103t101.5 42q51 0 84 -20.5t52.5 -52t26.5 -67.5t7 -66q0 -41 -6 -84t-16.5 -82t-24 -73t-27.5 -58q-23 -35 -48.5 -49.5t-49.5 -14.5q-43 0 -74 26.5t-31 67.5q0 16 6.5 32.5t16.5 45.5q10 25 20.5 57.5t16.5 67.5q-43 10 -68.5 44t-25.5 81z" />
<glyph unicode="&#x201e;" horiz-adv-x="892" d="M88 137q0 61 40 103.5t101 42.5q51 0 84 -20.5t52.5 -52.5t26.5 -68t7 -66q0 -41 -6 -84t-16 -82t-23.5 -73t-27.5 -58q-23 -35 -48.5 -49.5t-50.5 -14.5q-43 0 -73.5 27t-30.5 68q0 16 6 32.5t16 44.5q10 25 20.5 57.5t16.5 67.5q-43 10 -68.5 44t-25.5 81zM494 137 q0 61 39.5 103.5t101.5 42.5q51 0 84 -20.5t52.5 -52.5t26.5 -68t7 -66q0 -41 -6 -84t-16.5 -82t-24 -73t-27.5 -58q-23 -35 -48.5 -49.5t-49.5 -14.5q-43 0 -74 27t-31 68q0 16 6.5 32.5t16.5 44.5q10 25 20.5 57.5t16.5 67.5q-43 10 -68.5 44t-25.5 81z" />
<glyph unicode="&#x2022;" horiz-adv-x="626" d="M106 557q0 43 16.5 81t45.5 66.5t66.5 45t80.5 16.5t81 -16.5t67 -45t45 -66.5t16 -81t-16 -81t-45 -66.5t-67 -45t-81 -16.5t-80.5 16.5t-66.5 45t-45.5 66.5t-16.5 81z" />
<glyph unicode="&#x2026;" horiz-adv-x="1425" d="M90 137q0 61 43 104.5t105 43.5q61 0 104 -43t43 -105q0 -61 -43 -104t-104 -43t-104.5 43t-43.5 104zM565 137q0 61 43 104.5t105 43.5q61 0 104 -43t43 -105q0 -61 -43 -104t-104 -43t-104.5 43t-43.5 104zM1040 137q0 61 43 104.5t105 43.5q61 0 104 -43t43 -105 q0 -61 -43 -104t-104 -43t-104.5 43t-43.5 104z" />
<glyph unicode="&#x202f;" horiz-adv-x="368" />
<glyph unicode="&#x2039;" horiz-adv-x="782" d="M152 518q0 39 28 86q18 29 49 67t63 75.5t62.5 71.5t48.5 52q27 29 55.5 40.5t57.5 11.5q47 0 81 -28t34 -73q0 -18 -8.5 -39.5t-26.5 -44.5q-20 -25 -59 -68.5t-105 -115.5q-20 -23 -20 -35t20 -35q66 -72 104.5 -115.5t59.5 -68.5q18 -23 26.5 -44.5t8.5 -39.5 q0 -45 -34 -72.5t-81 -27.5q-29 0 -57.5 11t-55.5 40q-18 18 -48.5 52t-62.5 72t-62.5 75.5t-49.5 66.5q-29 47 -28 86z" />
<glyph unicode="&#x203a;" horiz-adv-x="782" d="M152 215q0 18 8 39.5t26 44.5q20 25 59.5 69t104.5 115q21 23 21 35t-21 35q-66 72 -104.5 116l-59.5 68q-18 23 -26 44.5t-8 39.5q0 45 33.5 73t80.5 28q29 0 57.5 -11.5t55.5 -40.5q18 -18 49 -52t62.5 -71.5t62.5 -75.5t49 -67q29 -47 29 -86t-29 -86 q-18 -29 -49 -66.5t-62.5 -75.5t-62.5 -72t-49 -52q-27 -29 -55.5 -40t-57.5 -11q-47 0 -80.5 27.5t-33.5 72.5z" />
<glyph unicode="&#x205f;" horiz-adv-x="460" />
<glyph unicode="&#x20ac;" d="M35 545q0 39 27.5 69.5t76.5 30.5h35q-2 16 -2 38v75h-35q-51 0 -76.5 29.5t-25.5 68.5q0 41 26.5 70.5t75.5 29.5h64q27 104 75 190.5t113.5 148t148.5 96t179 34.5q72 0 140.5 -20.5t122.5 -54t87 -74.5t33 -84q0 -59 -36 -93t-89 -34t-123 63q-35 31 -71 48.5 t-85 17.5q-82 0 -145.5 -68.5t-91.5 -169.5h393q49 0 75.5 -29.5t26.5 -70.5q0 -39 -25.5 -68.5t-76.5 -29.5h-426v-74.5t2 -38.5h289q49 0 75.5 -30.5t26.5 -69.5t-25.5 -67.5t-76.5 -28.5h-256q33 -98 95 -163t140 -65q66 0 100.5 25.5t63.5 60.5q23 29 53.5 55.5 t73.5 26.5q45 0 79 -28t34 -89q-2 -49 -35 -100t-85 -91t-120.5 -65.5t-142.5 -25.5q-94 0 -176 33.5t-147.5 94t-114 144.5t-74.5 187h-68q-49 0 -75.5 28.5t-26.5 67.5z" />
<glyph unicode="&#x2122;" horiz-adv-x="1239" d="M63 1331q0 23 14.5 42.5t49.5 19.5h340q31 0 47 -19.5t16 -44.5q0 -23 -14 -41t-49 -18h-102v-363q0 -31 -20.5 -47t-47.5 -16q-25 0 -46.5 16.5t-21.5 46.5v363h-102q-35 0 -49.5 19.5t-14.5 41.5zM600 907v428q0 29 23.5 46.5t52.5 17.5q18 0 35.5 -8.5t29.5 -26.5 q35 -53 68 -105.5t72 -107.5q31 53 62.5 105.5t64.5 105.5q10 16 28.5 25.5t38.5 9.5q29 0 51.5 -15.5t22.5 -48.5v-428q0 -29 -21.5 -45t-46.5 -16q-27 0 -47 16.5t-20 44.5v223l-78 -120q-23 -35 -62 -35t-61 37l-78 123v-226q0 -31 -21.5 -47t-45.5 -16q-27 0 -47.5 16.5 t-20.5 46.5z" />
<glyph unicode="&#x25fc;" horiz-adv-x="1054" d="M0 0v1055h1055v-1055h-1055z" />
<glyph unicode="&#xfb03;" horiz-adv-x="1808" d="M10 928q0 43 28 77.5t85 34.5h76v45q0 55 7 107.5t27 99.5q29 74 103 125t172 51t150.5 -41t52.5 -90q0 -41 -22.5 -73.5t-70.5 -32.5q-14 0 -24 2t-21 4q-8 2 -19 4t-28 2q-29 0 -48 -26.5t-19 -92.5v-84h336v29q0 68 8 122t28 101q29 74 107 125t174 51q98 0 150.5 -41 t52.5 -90q0 -41 -22.5 -73.5t-69.5 -32.5q-14 0 -24.5 2t-20.5 4q-8 2 -19.5 4t-28.5 2q-29 0 -52 -26.5t-23 -92.5v-84h147q53 0 83 -33.5t30 -80.5t-30 -81t-83 -34h-147v-705q0 -47 -39 -78.5t-92 -31.5t-91 31.5t-38 78.5v705h-336v-705q0 -47 -39 -78.5t-92 -31.5 t-91 31.5t-38 78.5v705h-76q-55 0 -84 37t-29 80zM1415 1323q0 59 41 100t100 41t100.5 -41t41.5 -100t-41 -100t-101 -41q-59 0 -100 41t-41 100zM1425 106v834q0 47 38 79t91 32t91 -32t38 -79v-834q0 -49 -37.5 -79.5t-91.5 -30.5q-53 0 -91 30.5t-38 79.5z" />
<glyph unicode="&#xfb04;" horiz-adv-x="1808" d="M10 928q0 43 28 77.5t85 34.5h76v45q0 55 7 107.5t27 99.5q29 74 103 125t172 51t150.5 -41t52.5 -90q0 -41 -22.5 -73.5t-70.5 -32.5q-14 0 -24 2t-21 4q-8 2 -19 4t-28 2q-29 0 -48 -26.5t-19 -92.5v-84h336v29q0 68 8 122t28 101q29 74 107 125t174 51q98 0 150.5 -41 t52.5 -90q0 -41 -22.5 -73.5t-69.5 -32.5q-14 0 -24.5 2t-20.5 4q-8 2 -19.5 4t-28.5 2q-29 0 -52 -26.5t-23 -92.5v-84h147q53 0 83 -33.5t30 -80.5t-30 -81t-83 -34h-147v-705q0 -47 -39 -78.5t-92 -31.5t-91 31.5t-38 78.5v705h-336v-705q0 -47 -39 -78.5t-92 -31.5 t-91 31.5t-38 78.5v705h-76q-55 0 -84 37t-29 80zM1423 106v1250q0 47 38 78.5t91 31.5t91 -31.5t38 -78.5v-1250q0 -47 -37.5 -78.5t-91.5 -31.5q-53 0 -91 31.5t-38 78.5z" />
</font>
</defs>
</svg>
